<svg xmlns="http://www.w3.org/2000/svg" viewBox="0 0 106.53 20.86"><defs><style>.cls-1{fill:#2ab14b;}.cls-2{fill:#fff;}</style></defs><g id="Layer_2" data-name="Layer 2"><g id="Layer_1-2" data-name="Layer 1"><rect class="cls-1" width="106.53" height="20.86" rx="4.32"/><path class="cls-2" d="M16.78,7.14H13.27l-.18,1.12.45,0,.41,0a3.72,3.72,0,0,1,1.43.27,3.34,3.34,0,0,1,1.88,1.88,3.77,3.77,0,0,1,.27,1.44,3.53,3.53,0,0,1-.31,1.48,3.15,3.15,0,0,1-.85,1.13A3.94,3.94,0,0,1,15,15.1a5.78,5.78,0,0,1-1.77.25,6.59,6.59,0,0,1-1.74-.22A6,6,0,0,1,10,14.45L10.34,12a5.52,5.52,0,0,0,1.38.88,3.35,3.35,0,0,0,1.33.3,1.8,1.8,0,0,0,1.28-.43,1.42,1.42,0,0,0,.47-1.09,1.45,1.45,0,0,0-.63-1.22A2.72,2.72,0,0,0,12.51,10a4.42,4.42,0,0,0-.94.1,4.47,4.47,0,0,0-1,.31l.85-5.45h5.32Z"/><path class="cls-2" d="M18.67,10A7.21,7.21,0,0,1,19,7.77a5.13,5.13,0,0,1,.89-1.69A3.86,3.86,0,0,1,23,4.61,4,4,0,0,1,24.72,5a3.89,3.89,0,0,1,1.36,1.09A5.13,5.13,0,0,1,27,7.77a7.22,7.22,0,0,1,.31,2.2A7.29,7.29,0,0,1,27,12.18a5.13,5.13,0,0,1-.89,1.69A3.8,3.8,0,0,1,24.72,15a4.17,4.17,0,0,1-3.48,0,3.89,3.89,0,0,1-1.36-1.1A5.13,5.13,0,0,1,19,12.18,7.28,7.28,0,0,1,18.67,10Zm2.62,0a5.83,5.83,0,0,0,.12,1.23,3.49,3.49,0,0,0,.34,1,1.93,1.93,0,0,0,.53.62,1.18,1.18,0,0,0,1.4,0,1.71,1.71,0,0,0,.53-.62,3.85,3.85,0,0,0,.34-1,6.31,6.31,0,0,0,0-2.45,3.63,3.63,0,0,0-.34-1,1.63,1.63,0,0,0-.53-.62,1.18,1.18,0,0,0-1.4,0,1.83,1.83,0,0,0-.53.62,3.3,3.3,0,0,0-.34,1A5.87,5.87,0,0,0,21.29,10Z"/><path class="cls-2" d="M27.84,10a7.22,7.22,0,0,1,.31-2.2A5.13,5.13,0,0,1,29,6.08a3.86,3.86,0,0,1,3.11-1.47A4,4,0,0,1,33.89,5a4,4,0,0,1,1.36,1.09,5.31,5.31,0,0,1,.88,1.69,7.21,7.21,0,0,1,.32,2.2,7.28,7.28,0,0,1-.32,2.21,5.31,5.31,0,0,1-.88,1.69A3.89,3.89,0,0,1,33.89,15a4.2,4.2,0,0,1-3.49,0A4,4,0,0,1,29,13.87a5.13,5.13,0,0,1-.89-1.69A7.29,7.29,0,0,1,27.84,10Zm2.61,0a5.83,5.83,0,0,0,.12,1.23,3.85,3.85,0,0,0,.34,1,1.84,1.84,0,0,0,.54.62,1.15,1.15,0,0,0,.7.23,1.17,1.17,0,0,0,.69-.23,1.71,1.71,0,0,0,.53-.62,3.49,3.49,0,0,0,.34-1,6.31,6.31,0,0,0,0-2.45,3.3,3.3,0,0,0-.34-1,1.63,1.63,0,0,0-.53-.62A1.17,1.17,0,0,0,32.15,7a1.15,1.15,0,0,0-.7.23,1.74,1.74,0,0,0-.54.62,3.63,3.63,0,0,0-.34,1A5.87,5.87,0,0,0,30.45,10Z"/><path class="cls-2" d="M37.34,15.07,39.06,4.91h2.62l2,5.41,2-5.41h2.62l1.72,10.16H47.44l-.87-5.85-2.4,5.85H43.12L40.84,9.22,40,15.07Z"/><path class="cls-2" d="M51.74,4.91h3.94a3,3,0,0,1,2.13.67,2.54,2.54,0,0,1,.73,1.94,2.65,2.65,0,0,1-.28,1.27,2.38,2.38,0,0,1-.84.86,3.09,3.09,0,0,1,1,.33,2.18,2.18,0,0,1,.65.54,2.14,2.14,0,0,1,.35.73,3.05,3.05,0,0,1,.11.87,3,3,0,0,1-.25,1.26,2.49,2.49,0,0,1-.7.93,3,3,0,0,1-1.1.57,5.36,5.36,0,0,1-1.45.19H51.74Zm2.64,4h.49c.83,0,1.24-.32,1.24-1s-.41-1-1.24-1h-.49Zm0,4.13H55a2.92,2.92,0,0,0,1.43-.26.87.87,0,0,0,.43-.82.87.87,0,0,0-.43-.82A2.92,2.92,0,0,0,55,10.86h-.58Z"/><path class="cls-2" d="M71.47,7.14H68.29v1.7h2.9v2.24h-2.9v4H65.65V4.91h5.82Z"/><path class="cls-2" d="M81.5,15.07H78.21l-2.52-3.91v3.91H73.05V4.91h4.11a4.14,4.14,0,0,1,1.48.24,3,3,0,0,1,1,.69,2.91,2.91,0,0,1,.62,1,3.47,3.47,0,0,1,.21,1.22A3,3,0,0,1,80,9.93a2.85,2.85,0,0,1-1.65,1ZM75.69,9.45h.5a1.9,1.9,0,0,0,1.2-.33,1.09,1.09,0,0,0,.42-.93,1.11,1.11,0,0,0-.42-.93,2,2,0,0,0-1.2-.32h-.5Z"/><path class="cls-2" d="M88.39,7.14H85.25v1.7h3v2.24h-3v1.75h3.14v2.24H82.6V4.91h5.79Z"/><path class="cls-2" d="M96.07,7.14H92.93v1.7h3v2.24h-3v1.75h3.14v2.24H90.29V4.91h5.78Z"/></g></g></svg>