<svg xmlns="http://www.w3.org/2000/svg" viewBox="0 0 247.06 37.16"><defs><style>.cls-1{fill:#2ab14b;}</style></defs><g id="Layer_2" data-name="Layer 2"><g id="Layer_1-2" data-name="Layer 1"><path class="cls-1" d="M4,8.12l-4-7H2.13L4.94,6.06,7.75,1.15H9.88l-4,7v5.3H4Z"/><path class="cls-1" d="M9.48,9.5a3.87,3.87,0,0,1,1.2-2.86A4,4,0,0,1,13.6,5.47a4.06,4.06,0,0,1,3,1.18,4,4,0,0,1,1.19,2.91,3.94,3.94,0,0,1-1.2,2.92,4.12,4.12,0,0,1-3,1.17,3.9,3.9,0,0,1-2.91-1.2A4,4,0,0,1,9.48,9.5Zm1.83,0a2.62,2.62,0,0,0,.62,1.83,2.16,2.16,0,0,0,1.67.69,2.19,2.19,0,0,0,1.68-.68,2.53,2.53,0,0,0,.63-1.8,2.56,2.56,0,0,0-.63-1.81,2.19,2.19,0,0,0-1.68-.68,2.19,2.19,0,0,0-1.66.68A2.52,2.52,0,0,0,11.31,9.53Z"/><path class="cls-1" d="M21.42,5.68v4.44c0,1.29.5,1.93,1.52,1.93s1.51-.64,1.51-1.93V5.68h1.79v4.48A5.12,5.12,0,0,1,26,11.77a2.77,2.77,0,0,1-.77,1.09,3.4,3.4,0,0,1-2.3.79,3.4,3.4,0,0,1-2.3-.79,2.72,2.72,0,0,1-.79-1.09,4.43,4.43,0,0,1-.22-1.61V5.68Z"/><path class="cls-1" d="M33.52,0h1.79V6.33a3,3,0,0,1,2.1-.86,2.7,2.7,0,0,1,2.1.85,3.43,3.43,0,0,1,.67,2.36v4.74H38.39V8.84a2.18,2.18,0,0,0-.33-1.34A1.26,1.26,0,0,0,37,7.08a1.47,1.47,0,0,0-1.32.58,4,4,0,0,0-.37,2v3.74H33.52Z"/><path class="cls-1" d="M48.15,5.68H50v7.74h-1.8v-.81a3.44,3.44,0,0,1-2.38,1,3.4,3.4,0,0,1-2.65-1.17,4.3,4.3,0,0,1-1-3,4.19,4.19,0,0,1,1-2.9,3.33,3.33,0,0,1,2.61-1.16,3.28,3.28,0,0,1,2.42,1.11ZM43.91,9.53a2.74,2.74,0,0,0,.59,1.81,2,2,0,0,0,1.54.71,2,2,0,0,0,1.61-.69,2.63,2.63,0,0,0,.61-1.79,2.64,2.64,0,0,0-.61-1.8,2,2,0,0,0-1.59-.69,2,2,0,0,0-1.54.7A2.56,2.56,0,0,0,43.91,9.53Z"/><path class="cls-1" d="M53.31,5.68l2,4.35,2-4.35h2l-4,8.27-4-8.27Z"/><path class="cls-1" d="M67.29,10H61.75a2.32,2.32,0,0,0,.62,1.52,1.88,1.88,0,0,0,1.4.56,1.85,1.85,0,0,0,1.11-.32,4.59,4.59,0,0,0,1-1.18l1.51.85a7.07,7.07,0,0,1-.74,1,4.22,4.22,0,0,1-.84.7,3.42,3.42,0,0,1-1,.4,4.92,4.92,0,0,1-1.12.13,3.66,3.66,0,0,1-2.78-1.12,4.16,4.16,0,0,1-1-3,4.29,4.29,0,0,1,1-3,3.88,3.88,0,0,1,5.42,0,4.31,4.31,0,0,1,1,3ZM65.46,8.51a1.72,1.72,0,0,0-1.81-1.43,1.76,1.76,0,0,0-1.13.39,1.74,1.74,0,0,0-.4.45,2.1,2.1,0,0,0-.25.59Z"/><path class="cls-1" d="M76.06,0V6.58a3.32,3.32,0,0,1,2.43-1.11A3.35,3.35,0,0,1,81.1,6.64a4.17,4.17,0,0,1,1,2.89,4.23,4.23,0,0,1-1,3,3.42,3.42,0,0,1-5,.13v.81H74.27V0Zm4.25,9.61a2.67,2.67,0,0,0-.6-1.81,1.94,1.94,0,0,0-1.54-.72,2.05,2.05,0,0,0-1.6.69A2.57,2.57,0,0,0,76,9.55a2.64,2.64,0,0,0,.6,1.81,2,2,0,0,0,1.59.69,2,2,0,0,0,1.54-.69A2.56,2.56,0,0,0,80.31,9.61Z"/><path class="cls-1" d="M91.08,10H85.53a2.37,2.37,0,0,0,.62,1.52,1.91,1.91,0,0,0,1.41.56,1.84,1.84,0,0,0,1.1-.32,4.22,4.22,0,0,0,1-1.18l1.51.85a6.38,6.38,0,0,1-.74,1,4.47,4.47,0,0,1-.83.7,3.68,3.68,0,0,1-1,.4,5,5,0,0,1-1.12.13,3.67,3.67,0,0,1-2.79-1.12,4.2,4.2,0,0,1-1-3,4.28,4.28,0,0,1,1-3A3.51,3.51,0,0,1,87.4,5.47a3.45,3.45,0,0,1,2.7,1.09,4.26,4.26,0,0,1,1,3ZM89.24,8.51a1.71,1.71,0,0,0-1.8-1.43,1.74,1.74,0,0,0-.61.1,1.66,1.66,0,0,0-.52.29,1.58,1.58,0,0,0-.4.45,1.86,1.86,0,0,0-.26.59Z"/><path class="cls-1" d="M100.08,10H94.54a2.27,2.27,0,0,0,.62,1.52,1.88,1.88,0,0,0,1.4.56,1.85,1.85,0,0,0,1.11-.32,4.4,4.4,0,0,0,1-1.18l1.51.85a6.36,6.36,0,0,1-.73,1,4.22,4.22,0,0,1-.84.7,3.68,3.68,0,0,1-1,.4,5,5,0,0,1-1.12.13,3.65,3.65,0,0,1-2.78-1.12,4.16,4.16,0,0,1-1-3,4.29,4.29,0,0,1,1-3,3.88,3.88,0,0,1,5.42,0,4.31,4.31,0,0,1,1,3ZM98.25,8.51a1.72,1.72,0,0,0-1.81-1.43,1.76,1.76,0,0,0-1.13.39,1.58,1.58,0,0,0-.4.45,1.84,1.84,0,0,0-.25.59Z"/><path class="cls-1" d="M102,5.68h1.79V6.4A2.94,2.94,0,0,1,106,5.47a2.64,2.64,0,0,1,2.1.85,3.45,3.45,0,0,1,.66,2.36v4.74h-1.8V9.1a2.85,2.85,0,0,0-.32-1.58,1.27,1.27,0,0,0-1.13-.45,1.38,1.38,0,0,0-1.26.59,4.09,4.09,0,0,0-.37,2v3.73H102Z"/><path class="cls-1" d="M121.69,5.68h1.8v7.74h-1.8v-.81a3.44,3.44,0,0,1-2.38,1,3.4,3.4,0,0,1-2.65-1.17,4.3,4.3,0,0,1-1-3,4.19,4.19,0,0,1,1-2.9,3.33,3.33,0,0,1,2.61-1.16,3.28,3.28,0,0,1,2.42,1.11Zm-4.24,3.85a2.74,2.74,0,0,0,.59,1.81,2,2,0,0,0,1.54.71,2,2,0,0,0,1.61-.69,2.63,2.63,0,0,0,.61-1.79,2.64,2.64,0,0,0-.61-1.8,2,2,0,0,0-1.59-.69,2,2,0,0,0-1.54.7A2.56,2.56,0,0,0,117.45,9.53Z"/><path class="cls-1" d="M126.86,5.68l2,4.42L131.07,5l2.2,5.13,2-4.42h2L133.22,14l-2.15-5-2.18,5-4-8.32Z"/><path class="cls-1" d="M143.93,5.68h1.79v7.74h-1.79v-.81a3.44,3.44,0,0,1-2.38,1,3.4,3.4,0,0,1-2.65-1.17,4.26,4.26,0,0,1-1.05-3,4.15,4.15,0,0,1,1.05-2.9,3.35,3.35,0,0,1,5,0Zm-4.25,3.85a2.69,2.69,0,0,0,.6,1.81,2,2,0,0,0,1.54.71,2.06,2.06,0,0,0,1.61-.69A2.68,2.68,0,0,0,144,9.57a2.69,2.69,0,0,0-.61-1.8,2,2,0,0,0-1.59-.69,2,2,0,0,0-1.55.7A2.61,2.61,0,0,0,139.68,9.53Z"/><path class="cls-1" d="M148,5.68h1.79v.69a3.39,3.39,0,0,1,.87-.7,1.92,1.92,0,0,1,.92-.2,2.83,2.83,0,0,1,1.48.46l-.82,1.64a1.67,1.67,0,0,0-1-.37c-1,0-1.46.74-1.46,2.21v4H148Z"/><path class="cls-1" d="M159.66,0h1.8V13.42h-1.8v-.81a3.33,3.33,0,0,1-2.39,1,3.4,3.4,0,0,1-2.64-1.17,4.3,4.3,0,0,1-1-3,4.17,4.17,0,0,1,1-2.89,3.33,3.33,0,0,1,2.6-1.17,3.28,3.28,0,0,1,2.43,1.11Zm-4.24,9.53a2.74,2.74,0,0,0,.59,1.81,2,2,0,0,0,1.55.71,2,2,0,0,0,1.6-.69,2.63,2.63,0,0,0,.61-1.79,2.64,2.64,0,0,0-.61-1.8,2,2,0,0,0-1.59-.69,2,2,0,0,0-1.54.7A2.56,2.56,0,0,0,155.42,9.53Z"/><path class="cls-1" d="M170.76,10h-5.54a2.27,2.27,0,0,0,.62,1.52,1.88,1.88,0,0,0,1.4.56,1.85,1.85,0,0,0,1.11-.32,4.4,4.4,0,0,0,1-1.18l1.51.85a6.36,6.36,0,0,1-.73,1,4.22,4.22,0,0,1-.84.7,3.68,3.68,0,0,1-1,.4,4.92,4.92,0,0,1-1.12.13,3.65,3.65,0,0,1-2.78-1.12,4.16,4.16,0,0,1-1.05-3,4.29,4.29,0,0,1,1-3,3.88,3.88,0,0,1,5.42,0,4.31,4.31,0,0,1,1,3Zm-1.83-1.46a1.72,1.72,0,0,0-1.81-1.43,1.76,1.76,0,0,0-1.13.39,1.58,1.58,0,0,0-.4.45,1.84,1.84,0,0,0-.25.59Z"/><path class="cls-1" d="M178.42,0h1.8V13.42h-1.8v-.81a3.33,3.33,0,0,1-2.39,1,3.4,3.4,0,0,1-2.64-1.17,4.3,4.3,0,0,1-1-3,4.17,4.17,0,0,1,1-2.89A3.33,3.33,0,0,1,176,5.47a3.28,3.28,0,0,1,2.43,1.11Zm-4.24,9.53a2.69,2.69,0,0,0,.6,1.81,1.94,1.94,0,0,0,1.54.71,2,2,0,0,0,1.6-.69,2.63,2.63,0,0,0,.62-1.79,2.64,2.64,0,0,0-.62-1.8,2,2,0,0,0-1.59-.69,2,2,0,0,0-1.54.7A2.56,2.56,0,0,0,174.18,9.53Z"/><path class="cls-1" d="M195.48,3.85h-4.24L191,5.2l.53,0a4.24,4.24,0,0,1,.51,0,4.43,4.43,0,0,1,1.72.33,3.93,3.93,0,0,1,2.26,2.26,4.49,4.49,0,0,1,.33,1.74,4.15,4.15,0,0,1-.37,1.79,3.84,3.84,0,0,1-1,1.36,4.68,4.68,0,0,1-1.63.86,7.12,7.12,0,0,1-2.13.3,8.53,8.53,0,0,1-2.11-.26,7,7,0,0,1-1.88-.83l.48-3a6.49,6.49,0,0,0,1.66,1.07,4.1,4.1,0,0,0,1.61.36,2.14,2.14,0,0,0,1.54-.53,1.8,1.8,0,0,0-.19-2.78,3.27,3.27,0,0,0-2-.56,5.6,5.6,0,0,0-2.3.5l1-6.59h6.42Z"/><path class="cls-1" d="M197.76,7.27a8.54,8.54,0,0,1,.39-2.66,6,6,0,0,1,1.07-2A4.72,4.72,0,0,1,203,.79a4.76,4.76,0,0,1,2.1.47,4.62,4.62,0,0,1,1.64,1.31,6,6,0,0,1,1.07,2,8.55,8.55,0,0,1,.38,2.66,8.55,8.55,0,0,1-.38,2.66A6.14,6.14,0,0,1,206.71,12a4.65,4.65,0,0,1-1.64,1.32,5,5,0,0,1-4.21,0A4.84,4.84,0,0,1,199.22,12a6.14,6.14,0,0,1-1.07-2.05A8.54,8.54,0,0,1,197.76,7.27Zm3.16,0a6.74,6.74,0,0,0,.15,1.48,4.38,4.38,0,0,0,.41,1.16,2.29,2.29,0,0,0,.65.75,1.38,1.38,0,0,0,.84.27,1.43,1.43,0,0,0,.84-.27,2.16,2.16,0,0,0,.64-.75,4.38,4.38,0,0,0,.41-1.16A6.74,6.74,0,0,0,205,7.27a6.78,6.78,0,0,0-.15-1.47,4.26,4.26,0,0,0-.41-1.16,2.16,2.16,0,0,0-.64-.75,1.43,1.43,0,0,0-.84-.27,1.38,1.38,0,0,0-.84.27,2.29,2.29,0,0,0-.65.75,4.26,4.26,0,0,0-.41,1.16A6.78,6.78,0,0,0,200.92,7.27Z"/><path class="cls-1" d="M208.83,7.27a8.85,8.85,0,0,1,.38-2.66,6.19,6.19,0,0,1,1.08-2A4.72,4.72,0,0,1,214,.79a4.76,4.76,0,0,1,2.1.47,4.62,4.62,0,0,1,1.64,1.31,6.17,6.17,0,0,1,1.07,2,8.85,8.85,0,0,1,.38,2.66,8.85,8.85,0,0,1-.38,2.66A6.33,6.33,0,0,1,217.78,12a4.65,4.65,0,0,1-1.64,1.32,5,5,0,0,1-4.21,0A4.84,4.84,0,0,1,210.29,12a6.34,6.34,0,0,1-1.08-2.05A8.85,8.85,0,0,1,208.83,7.27Zm3.16,0a7.44,7.44,0,0,0,.14,1.48,4.38,4.38,0,0,0,.42,1.16,2.27,2.27,0,0,0,.64.75,1.41,1.41,0,0,0,.85.27,1.45,1.45,0,0,0,.84-.27,2.16,2.16,0,0,0,.64-.75,4.77,4.77,0,0,0,.41-1.16,7.84,7.84,0,0,0,0-2.95,4.62,4.62,0,0,0-.41-1.16,2.16,2.16,0,0,0-.64-.75,1.45,1.45,0,0,0-.84-.27,1.41,1.41,0,0,0-.85.27,2.27,2.27,0,0,0-.64.75,4.25,4.25,0,0,0-.42,1.16A7.49,7.49,0,0,0,212,7.27Z"/><path class="cls-1" d="M220.3,13.42l2.09-12.27h3.15L228,7.69l2.44-6.54h3.16l2.08,12.27h-3.17l-1.06-7.06-2.89,7.06h-1.27l-2.75-7.06-1.06,7.06Z"/><path class="cls-1" d="M237.7,1.15h4.75A3.7,3.7,0,0,1,245,2a3.08,3.08,0,0,1,.87,2.35,3.22,3.22,0,0,1-.33,1.54,2.79,2.79,0,0,1-1,1,3.92,3.92,0,0,1,1.17.4,2.53,2.53,0,0,1,.78.66,2.49,2.49,0,0,1,.43.88,3.85,3.85,0,0,1,.13,1,3.73,3.73,0,0,1-.3,1.53,3,3,0,0,1-.85,1.12,3.59,3.59,0,0,1-1.32.68,6,6,0,0,1-1.76.23H237.7ZM240.89,6h.59c1,0,1.5-.4,1.5-1.19s-.5-1.19-1.5-1.19h-.59Zm0,5h.7a3.52,3.52,0,0,0,1.73-.31,1.09,1.09,0,0,0,.52-1,1.09,1.09,0,0,0-.52-1,3.64,3.64,0,0,0-1.73-.31h-.7Z"/><path class="cls-1" d="M3,26.88V33H1.24V26.88H.48V25.21h.76V22.38H3v2.83H4.42v1.67Z"/><path class="cls-1" d="M5.38,29a3.87,3.87,0,0,1,1.2-2.86A4,4,0,0,1,9.5,25a4,4,0,0,1,2.94,1.18,4.14,4.14,0,0,1,0,5.83,4.12,4.12,0,0,1-3,1.17A3.9,3.9,0,0,1,6.56,32,4,4,0,0,1,5.38,29Zm1.83,0a2.57,2.57,0,0,0,.62,1.83,2.16,2.16,0,0,0,1.67.69,2.19,2.19,0,0,0,1.68-.68,2.9,2.9,0,0,0,0-3.61,2.19,2.19,0,0,0-1.68-.68,2.19,2.19,0,0,0-1.66.68A2.52,2.52,0,0,0,7.21,29.06Z"/><path class="cls-1" d="M26.26,25.21h1.79V33H26.26v-.81a3.43,3.43,0,0,1-5-.12,4.3,4.3,0,0,1-1-3,4.15,4.15,0,0,1,1-2.9,3.35,3.35,0,0,1,5-.05ZM22,29.06a2.69,2.69,0,0,0,.6,1.81,2,2,0,0,0,1.54.71,2.06,2.06,0,0,0,1.61-.69,2.95,2.95,0,0,0,0-3.59,2,2,0,0,0-1.59-.69,2,2,0,0,0-1.55.7A2.61,2.61,0,0,0,22,29.06Z"/><path class="cls-1" d="M36.33,25.55v2.37a4.1,4.1,0,0,0-1.09-1,2.15,2.15,0,0,0-1.12-.29,2.2,2.2,0,0,0-1.68.71,2.45,2.45,0,0,0-.67,1.77,2.54,2.54,0,0,0,.65,1.79,2.17,2.17,0,0,0,1.66.7,2.2,2.2,0,0,0,1.13-.28,4.47,4.47,0,0,0,1.12-1.05v2.36a4.63,4.63,0,0,1-2.17.57,4.2,4.2,0,0,1-3-1.16,4.09,4.09,0,0,1,0-5.83,4.13,4.13,0,0,1,3-1.19A4.42,4.42,0,0,1,36.33,25.55Z"/><path class="cls-1" d="M39.91,26.88V33H38.12V26.88h-.76V25.21h.76V22.38h1.79v2.83H41.3v1.67Z"/><path class="cls-1" d="M42.25,22a1.1,1.1,0,0,1,.34-.81,1.16,1.16,0,0,1,1.64,0,1.17,1.17,0,0,1,0,1.65,1.08,1.08,0,0,1-.82.34,1.11,1.11,0,0,1-.82-.34A1.14,1.14,0,0,1,42.25,22Zm2,3.22V33H42.52V25.21Z"/><path class="cls-1" d="M47.53,25.21l2,4.35,2-4.35h2l-4,8.27-4-8.27Z"/><path class="cls-1" d="M60.17,25.21H62V33h-1.8v-.81a3.4,3.4,0,0,1-2.37,1A3.45,3.45,0,0,1,55.14,32a4.35,4.35,0,0,1-1-3,4.19,4.19,0,0,1,1-2.9A3.36,3.36,0,0,1,57.75,25a3.28,3.28,0,0,1,2.42,1.11Zm-4.24,3.85a2.69,2.69,0,0,0,.6,1.81,1.94,1.94,0,0,0,1.54.71,2,2,0,0,0,1.6-.69,2.91,2.91,0,0,0,0-3.59,2,2,0,0,0-1.59-.69,2,2,0,0,0-1.54.7A2.56,2.56,0,0,0,55.93,29.06Z"/><path class="cls-1" d="M66.07,26.88V33H64.28V26.88h-.76V25.21h.76V22.38h1.79v2.83h1.39v1.67Z"/><path class="cls-1" d="M75.87,29.5H70.32A2.37,2.37,0,0,0,70.94,31a1.91,1.91,0,0,0,1.41.56,1.84,1.84,0,0,0,1.1-.32,4.22,4.22,0,0,0,1-1.18l1.51.85a6.38,6.38,0,0,1-.74,1,4.47,4.47,0,0,1-.83.7,3.68,3.68,0,0,1-1,.4,5,5,0,0,1-1.12.13,3.67,3.67,0,0,1-2.79-1.12,4.16,4.16,0,0,1-1-3,4.29,4.29,0,0,1,1-3A3.51,3.51,0,0,1,72.19,25a3.45,3.45,0,0,1,2.7,1.09,4.26,4.26,0,0,1,1,3ZM74,28a1.71,1.71,0,0,0-1.8-1.43,1.74,1.74,0,0,0-.61.1,1.66,1.66,0,0,0-.52.29,1.58,1.58,0,0,0-.4.45,1.86,1.86,0,0,0-.26.59Z"/><path class="cls-1" d="M84.63,19.53v6.58a3.36,3.36,0,0,1,5,.06,4.12,4.12,0,0,1,1,2.89,4.27,4.27,0,0,1-1,3,3.43,3.43,0,0,1-5,.12V33H82.85V19.53Zm4.26,9.61a2.68,2.68,0,0,0-.61-1.81,1.93,1.93,0,0,0-1.53-.72,2.07,2.07,0,0,0-1.61.69,2.57,2.57,0,0,0-.61,1.78,2.64,2.64,0,0,0,.6,1.81,2,2,0,0,0,1.59.69,2,2,0,0,0,1.55-.69A2.56,2.56,0,0,0,88.89,29.14Z"/><path class="cls-1" d="M94.39,25.21v4.44c0,1.29.51,1.93,1.52,1.93s1.52-.64,1.52-1.93V25.21h1.79v4.48A5.12,5.12,0,0,1,99,31.3a2.77,2.77,0,0,1-.77,1.09,3.76,3.76,0,0,1-4.61,0,2.7,2.7,0,0,1-.78-1.09,4.39,4.39,0,0,1-.23-1.61V25.21Z"/><path class="cls-1" d="M103.91,31.51l-3.48-6.3h2.08l2.37,4.45,2.2-4.45h2l-6.16,11.95h-2Z"/><path class="cls-1" d="M118.53,23.38h-1.79v-2.7h5V33h-3.19Z"/><path class="cls-1" d="M132.54,26.08h6.33c0,.66,0,1.25-.08,1.78a6.27,6.27,0,0,1-.33,1.48,5.91,5.91,0,0,1-.92,1.7,5.61,5.61,0,0,1-1.38,1.24,6.39,6.39,0,0,1-1.73.75,7.19,7.19,0,0,1-2,.26,6.89,6.89,0,0,1-2.61-.47,5.85,5.85,0,0,1-2-1.32,6.23,6.23,0,0,1-1.32-2.05,7.65,7.65,0,0,1,0-5.28,5.69,5.69,0,0,1,1.31-2,6.18,6.18,0,0,1,2.06-1.32,7.44,7.44,0,0,1,2.69-.47,6.71,6.71,0,0,1,3.37.83,5.73,5.73,0,0,1,2.29,2.57l-3,1.25a3.1,3.1,0,0,0-1.1-1.44,2.72,2.72,0,0,0-1.54-.44,3.21,3.21,0,0,0-1.3.26,2.8,2.8,0,0,0-1,.77,3.65,3.65,0,0,0-.66,1.2,5,5,0,0,0-.23,1.56,5.18,5.18,0,0,0,.2,1.45,3.33,3.33,0,0,0,.61,1.15,2.73,2.73,0,0,0,1,.76,3.4,3.4,0,0,0,1.4.27,3.84,3.84,0,0,0,.91-.11,2.25,2.25,0,0,0,.79-.34,2,2,0,0,0,.58-.61,2.57,2.57,0,0,0,.31-.91h-2.62Z"/><path class="cls-1" d="M140.89,20.68h4.75a3.65,3.65,0,0,1,2.57.81,3,3,0,0,1,.88,2.35,3.22,3.22,0,0,1-.33,1.54,2.87,2.87,0,0,1-1,1,3.85,3.85,0,0,1,1.16.4,2.53,2.53,0,0,1,.78.66,2.35,2.35,0,0,1,.44.88,4.29,4.29,0,0,1,.13,1,3.58,3.58,0,0,1-.31,1.53A3.12,3.12,0,0,1,149.1,32a3.57,3.57,0,0,1-1.33.68A6,6,0,0,1,146,33h-5.12Zm3.19,4.82h.58c1,0,1.5-.4,1.5-1.19s-.5-1.19-1.5-1.19h-.58Zm0,5h.7a3.48,3.48,0,0,0,1.72-.31,1.21,1.21,0,0,0,0-2,3.6,3.6,0,0,0-1.72-.31h-.7Z"/><path class="cls-1" d="M156.65,29a3.87,3.87,0,0,1,1.2-2.86,4.24,4.24,0,0,1,5.86,0,4.14,4.14,0,0,1,0,5.83,4.12,4.12,0,0,1-3,1.17,3.9,3.9,0,0,1-2.91-1.2A4,4,0,0,1,156.65,29Zm1.83,0a2.57,2.57,0,0,0,.62,1.83,2.16,2.16,0,0,0,1.67.69,2.19,2.19,0,0,0,1.68-.68,2.9,2.9,0,0,0,0-3.61,2.39,2.39,0,0,0-3.34,0A2.52,2.52,0,0,0,158.48,29.06Z"/><path class="cls-1" d="M168.65,26.88V33h-1.8V26.88h-.63V25.21h.63v-3a3.22,3.22,0,0,1,.51-2.06,2.51,2.51,0,0,1,2-.84,3.67,3.67,0,0,1,1.2.27v1.83l-.19-.09a2.17,2.17,0,0,0-.95-.3.65.65,0,0,0-.64.34,3.36,3.36,0,0,0-.17,1.29v2.55h1.95v1.67Z"/><path class="cls-1" d="M182.36,19.53h1.79V33h-1.79v-.81a3.34,3.34,0,0,1-2.39,1A3.42,3.42,0,0,1,177.33,32a4.3,4.3,0,0,1-1-3,4.12,4.12,0,0,1,1-2.89,3.34,3.34,0,0,1,5-.06Zm-4.25,9.53a2.69,2.69,0,0,0,.6,1.81,2,2,0,0,0,1.54.71,2.06,2.06,0,0,0,1.61-.69,2.95,2.95,0,0,0,0-3.59,2,2,0,0,0-1.59-.69,2,2,0,0,0-1.54.7A2.56,2.56,0,0,0,178.11,29.06Z"/><path class="cls-1" d="M192.12,25.21h1.79V33h-1.79v-.81a3.43,3.43,0,0,1-5-.12,4.31,4.31,0,0,1-1.05-3,4.15,4.15,0,0,1,1.05-2.9,3.35,3.35,0,0,1,5-.05Zm-4.25,3.85a2.69,2.69,0,0,0,.6,1.81,2,2,0,0,0,1.54.71,2.06,2.06,0,0,0,1.61-.69,2.95,2.95,0,0,0,0-3.59,2,2,0,0,0-1.59-.69,2,2,0,0,0-1.55.7A2.61,2.61,0,0,0,187.87,29.06Z"/><path class="cls-1" d="M198,26.88V33h-1.78V26.88h-.77V25.21h.77V22.38H198v2.83h1.39v1.67Z"/><path class="cls-1" d="M206.47,25.21h1.79V33h-1.79v-.81a3.43,3.43,0,0,1-5-.12,4.3,4.3,0,0,1-1-3,4.15,4.15,0,0,1,1-2.9,3.35,3.35,0,0,1,5-.05Zm-4.24,3.85a2.68,2.68,0,0,0,.59,1.81,2,2,0,0,0,1.54.71,2.06,2.06,0,0,0,1.61-.69,2.95,2.95,0,0,0,0-3.59,2,2,0,0,0-1.59-.69,2,2,0,0,0-1.54.7A2.56,2.56,0,0,0,202.23,29.06Z"/><path class="cls-1" d="M210.8,32.06a1.06,1.06,0,0,1,.33-.77,1.1,1.1,0,0,1,1.55,0,1.11,1.11,0,0,1-1.56,1.57A1.09,1.09,0,0,1,210.8,32.06Z"/></g></g></svg>