<svg xmlns="http://www.w3.org/2000/svg" viewBox="0 0 110.59 26.51"><defs><style>.cls-1{fill:#2ab14b;}.cls-2{fill:#fff;}</style></defs><g id="Layer_2" data-name="Layer 2"><g id="Layer_1-2" data-name="Layer 1"><path class="cls-1" d="M106.1,26.51H4.49C2,26.51,0,24.05,0,21V5.5C0,2.46,2,0,4.49,0H106.1c2.48,0,4.49,2.46,4.49,5.5V21C110.59,24.05,108.58,26.51,106.1,26.51Z"/><path class="cls-2" d="M10.42,7h4.89A3.73,3.73,0,0,1,18,7.78a3.1,3.1,0,0,1,.91,2.41,3.24,3.24,0,0,1-.35,1.58,2.8,2.8,0,0,1-1,1.07,3.84,3.84,0,0,1,1.2.41,2.77,2.77,0,0,1,.8.67,2.65,2.65,0,0,1,.44.91,4.07,4.07,0,0,1,.14,1.07,3.89,3.89,0,0,1-.31,1.57,3.35,3.35,0,0,1-.87,1.16,3.86,3.86,0,0,1-1.37.7,6.31,6.31,0,0,1-1.81.23H10.42Zm3.28,5h.61c1,0,1.54-.41,1.54-1.22s-.52-1.22-1.54-1.22H13.7Zm0,5.12h.72a3.7,3.7,0,0,0,1.78-.32,1.25,1.25,0,0,0,0-2,3.7,3.7,0,0,0-1.78-.32H13.7Z"/><path class="cls-2" d="M25.28,7v6.86c0,.36,0,.74,0,1.13a3.12,3.12,0,0,0,.26,1,1.73,1.73,0,0,0,.66.76,2.27,2.27,0,0,0,1.27.3,2.21,2.21,0,0,0,1.26-.3,1.73,1.73,0,0,0,.66-.76,2.89,2.89,0,0,0,.26-1c0-.39,0-.77,0-1.13V7H33v7.31a5.9,5.9,0,0,1-1.35,4.3,5.64,5.64,0,0,1-4.14,1.35,5.66,5.66,0,0,1-4.15-1.35A5.85,5.85,0,0,1,22,14.26V7Z"/><path class="cls-2" d="M38.69,13.5,34.08,7H38l2.34,3.44L42.67,7h3.91L42,13.5v6.06H38.69Z"/><path class="cls-2" d="M53.43,19.56V7h3.28l6.06,7.71V7H66V19.56H62.77l-6.06-7.71v7.71Z"/><path class="cls-2" d="M68.25,13.25a6.57,6.57,0,0,1,2-4.73,6.78,6.78,0,0,1,2.2-1.42A8,8,0,0,1,78,7.1a6.87,6.87,0,0,1,2.22,1.42,6.5,6.5,0,0,1,1.45,2.12,6.84,6.84,0,0,1,0,5.23A6.5,6.5,0,0,1,80.26,18,6.69,6.69,0,0,1,78,19.4a8,8,0,0,1-5.63,0,6.45,6.45,0,0,1-3.64-3.53A6.69,6.69,0,0,1,68.25,13.25Zm3.43,0A3.32,3.32,0,0,0,72,14.64a3.46,3.46,0,0,0,.77,1.11,3.41,3.41,0,0,0,1.13.72,3.47,3.47,0,0,0,1.36.27,3.52,3.52,0,0,0,1.37-.27,3.63,3.63,0,0,0,1.13-.72,3.48,3.48,0,0,0,.78-1.11,3.32,3.32,0,0,0,.29-1.39,3.39,3.39,0,0,0-.29-1.39,3.44,3.44,0,0,0-.78-1.1A3.85,3.85,0,0,0,76.6,10a3.71,3.71,0,0,0-1.37-.26,3.66,3.66,0,0,0-1.36.26,3.6,3.6,0,0,0-1.13.73,3.43,3.43,0,0,0-1.06,2.49Z"/><path class="cls-2" d="M86.21,7l2.17,8.15L91.06,7h2.61l2.68,8.15L98.52,7H102L98.19,19.56H94.84l-2.47-7.31-2.48,7.31H86.54L82.78,7Z"/></g></g></svg>