<svg xmlns="http://www.w3.org/2000/svg" xmlns:xlink="http://www.w3.org/1999/xlink" viewBox="0 0 226.56 226.56"><defs><style>.cls-1{isolation:isolate;}.cls-2{fill:url(#linear-gradient);}.cls-3{fill:url(#radial-gradient);}.cls-4{fill:url(#linear-gradient-2);}.cls-5{fill:url(#linear-gradient-3);}.cls-6{fill:url(#linear-gradient-4);}.cls-7{fill:url(#linear-gradient-5);}.cls-8{fill:url(#linear-gradient-6);}.cls-9{fill:url(#linear-gradient-7);}.cls-10{opacity:0.7;mix-blend-mode:multiply;fill:url(#radial-gradient-2);}.cls-11{fill:url(#linear-gradient-8);}.cls-12{fill:#1e4fad;}.cls-13,.cls-16{fill:#fff;}.cls-13{fill-rule:evenodd;}.cls-14{fill:#1ba5d4;}.cls-15{fill:url(#linear-gradient-9);}.cls-17{fill:#0b8f21;}.cls-18{fill:#ffec00;}.cls-19{fill:#333;}.cls-20{fill:#fd3832;}</style><linearGradient id="linear-gradient" x1="199.62" y1="26.94" x2="32.61" y2="193.95" gradientTransform="translate(113.28 -46.92) rotate(45)" gradientUnits="userSpaceOnUse"><stop offset="0" stop-color="#37e862"/><stop offset="0.48" stop-color="#31d058"/><stop offset="1" stop-color="#2ab14b"/></linearGradient><radialGradient id="radial-gradient" cx="113.28" cy="113.28" r="106.38" gradientUnits="userSpaceOnUse"><stop offset="0.37" stop-color="#fdfdfd"/><stop offset="0.65" stop-color="#fbfbfb"/><stop offset="0.81" stop-color="#f2f2f2"/><stop offset="0.94" stop-color="#e4e4e4"/><stop offset="1" stop-color="#dbdbdb"/></radialGradient><linearGradient id="linear-gradient-2" x1="211.47" y1="33.3" x2="-37.72" y2="208.99" gradientTransform="matrix(1, 0, 0, 1, 0, 0)" xlink:href="#linear-gradient"/><linearGradient id="linear-gradient-3" x1="243.24" y1="78.35" x2="-5.96" y2="254.04" gradientTransform="matrix(1, 0, 0, 1, 0, 0)" xlink:href="#linear-gradient"/><linearGradient id="linear-gradient-4" x1="244.72" y1="80.46" x2="-4.47" y2="256.15" gradientTransform="matrix(1, 0, 0, 1, 0, 0)" xlink:href="#linear-gradient"/><linearGradient id="linear-gradient-5" x1="221.6" y1="47.66" x2="-27.6" y2="223.35" gradientTransform="matrix(1, 0, 0, 1, 0, 0)" xlink:href="#linear-gradient"/><linearGradient id="linear-gradient-6" x1="188.35" y1="0.5" x2="-60.85" y2="176.19" gradientTransform="matrix(1, 0, 0, 1, 0, 0)" xlink:href="#linear-gradient"/><linearGradient id="linear-gradient-7" x1="189.84" y1="2.61" x2="-59.36" y2="178.3" gradientTransform="matrix(1, 0, 0, 1, 0, 0)" xlink:href="#linear-gradient"/><radialGradient id="radial-gradient-2" cx="111.91" cy="115.55" r="11.11" gradientUnits="userSpaceOnUse"><stop offset="0.34" stop-color="#400500"/><stop offset="0.37" stop-color="#4f1814"/><stop offset="0.47" stop-color="#7d5451"/><stop offset="0.57" stop-color="#a48886"/><stop offset="0.67" stop-color="#c5b3b2"/><stop offset="0.76" stop-color="#ded4d3"/><stop offset="0.85" stop-color="#f0eceb"/><stop offset="0.93" stop-color="#fbfafa"/><stop offset="1" stop-color="#fff"/></radialGradient><linearGradient id="linear-gradient-8" x1="127.6" y1="98.96" x2="85.35" y2="141.21" gradientUnits="userSpaceOnUse"><stop offset="0" stop-color="#0e5df8"/><stop offset="0.31" stop-color="#0f4ee0"/><stop offset="0.96" stop-color="#1026a3"/><stop offset="1" stop-color="#10249f"/></linearGradient><linearGradient id="linear-gradient-9" x1="49.14" y1="102.32" x2="17.67" y2="133.79" gradientTransform="translate(140.12 54.05) rotate(76.72)" gradientUnits="userSpaceOnUse"><stop offset="0.01" stop-color="#3542e0"/><stop offset="0.17" stop-color="#3841df"/><stop offset="0.27" stop-color="#403fda"/><stop offset="0.36" stop-color="#4e3cd2"/><stop offset="0.43" stop-color="#6337c7"/><stop offset="0.5" stop-color="#7d31b9"/><stop offset="0.56" stop-color="#9e2aa8"/><stop offset="0.62" stop-color="#c32193"/><stop offset="0.62" stop-color="#c82091"/><stop offset="0.76" stop-color="#f62b37"/><stop offset="1" stop-color="#ffc658"/></linearGradient></defs><g class="cls-1"><g id="Layer_2" data-name="Layer 2"><g id="Layer_1-2" data-name="Layer 1"><circle class="cls-2" cx="113.28" cy="113.28" r="113.28" transform="translate(-46.92 113.28) rotate(-45)"/><path class="cls-3" d="M213.12,113.28a99.85,99.85,0,1,1-99.84-99.85A99.84,99.84,0,0,1,213.12,113.28Z"/><path class="cls-4" d="M40.62,181.76l72.66-68.48L17.62,142A99.91,99.91,0,0,0,40.62,181.76Z"/><path class="cls-5" d="M113.28,213.12a100,100,0,0,0,23-2.66l-23-97.18-23,97.18A100,100,0,0,0,113.28,213.12Z"/><path class="cls-6" d="M208.93,142l-95.65-28.69,72.65,68.48A99.74,99.74,0,0,0,208.93,142Z"/><path class="cls-7" d="M185.93,44.8l-72.65,68.48,95.65-28.69A99.61,99.61,0,0,0,185.93,44.8Z"/><path class="cls-8" d="M17.62,84.59l95.66,28.69L40.62,44.8A99.84,99.84,0,0,0,17.62,84.59Z"/><path class="cls-9" d="M113.28,13.43a100,100,0,0,0-23,2.67l23,97.18,23-97.18A100,100,0,0,0,113.28,13.43Z"/><path class="cls-10" d="M123,115.55a11.11,11.11,0,1,1-11.11-11.11A11.11,11.11,0,0,1,123,115.55Z"/><path class="cls-11" d="M120,113.28a6.74,6.74,0,1,1-6.73-6.74A6.73,6.73,0,0,1,120,113.28Z"/><path class="cls-12" d="M83.9,42.14A12.21,12.21,0,0,1,71.69,54.35c-.28,0-.55,0-.82,0a12.21,12.21,0,1,1,13-12.18Z"/><path class="cls-13" d="M74.56,39.89c0,.76,0,2.51,0,2.51H78c-.15,1.21-.31,2.38-.46,3.55h-3V54a12.3,12.3,0,0,1-2.86.34c-.28,0-.55,0-.82,0V45.94h-3V42.4h3v-.26c0-.71,0-1.42,0-2.13A12.26,12.26,0,0,1,71,38.65,4,4,0,0,1,72.59,36a4.56,4.56,0,0,1,2.65-.82c.62,0,1.24,0,1.87,0,.34,0,.68.07,1,.1V38.5h-.25c-.61,0-1.21,0-1.82,0C75.2,38.53,74.59,38.85,74.56,39.89Z"/><circle class="cls-14" cx="152.31" cy="43.46" r="12.21" transform="translate(75.02 181.72) rotate(-76.72)"/><path class="cls-13" d="M150.07,47.3a2.92,2.92,0,0,1-2.72-2,2.78,2.78,0,0,0,1.25,0l.05,0a2.9,2.9,0,0,1-1.9-1.34,2.74,2.74,0,0,1-.43-1.56,2.85,2.85,0,0,0,1.3.36,3,3,0,0,1-1.21-1.78,2.92,2.92,0,0,1,.32-2.12,8.36,8.36,0,0,0,6,3.06c0-.11,0-.22-.05-.32a2.85,2.85,0,0,1,.43-1.91,2.81,2.81,0,0,1,2-1.33,2.86,2.86,0,0,1,2.57.82.14.14,0,0,0,.15,0,5.94,5.94,0,0,0,1.71-.66l0,0h0a3,3,0,0,1-1.25,1.59,5.4,5.4,0,0,0,1.63-.44v0l-.33.44a6,6,0,0,1-1.07,1,.11.11,0,0,0,0,.09,8.08,8.08,0,0,1-.05,1.3,8.75,8.75,0,0,1-2.34,4.92,7.86,7.86,0,0,1-4,2.24,9,9,0,0,1-1.63.19,8.26,8.26,0,0,1-4.69-1.26l-.07,0a6,6,0,0,0,2.93-.4A5.59,5.59,0,0,0,150.07,47.3Z"/><circle class="cls-15" cx="35.91" cy="115.55" r="12.21" transform="translate(-84.79 123.95) rotate(-76.72)"/><path class="cls-16" d="M43.46,111.73a4,4,0,0,0-1.24-2.62A4.23,4.23,0,0,0,39.41,108a56,56,0,0,0-7.59.08,3.87,3.87,0,0,0-3.32,3,43.48,43.48,0,0,0-.08,8.61A3.89,3.89,0,0,0,31.51,123,45.36,45.36,0,0,0,40,123,3.89,3.89,0,0,0,43.36,120,47.51,47.51,0,0,0,43.46,111.73Zm-1.41,7.66a2.59,2.59,0,0,1-2.44,2.32,45.31,45.31,0,0,1-7.91-.11,2.51,2.51,0,0,1-1.91-2.17,51.21,51.21,0,0,1,0-7.74,2.59,2.59,0,0,1,2.43-2.31,54.32,54.32,0,0,1,7.55,0,2.59,2.59,0,0,1,2.31,2.45A54.12,54.12,0,0,1,42.05,119.39Zm-6.13-7.77a3.93,3.93,0,1,0,3.93,3.93A3.93,3.93,0,0,0,35.92,111.62Zm0,6.47a2.55,2.55,0,1,1,2.57-2.52A2.55,2.55,0,0,1,35.89,118.09Zm5-6.62a.93.93,0,1,1-.92-.93A.93.93,0,0,1,40.93,111.47Z"/><path class="cls-16" d="M43.46,111.73a4,4,0,0,0-1.24-2.62A4.23,4.23,0,0,0,39.41,108a56,56,0,0,0-7.59.08,3.87,3.87,0,0,0-3.32,3,43.48,43.48,0,0,0-.08,8.61A3.89,3.89,0,0,0,31.51,123,45.36,45.36,0,0,0,40,123,3.89,3.89,0,0,0,43.36,120,47.51,47.51,0,0,0,43.46,111.73Zm-1.41,7.66a2.59,2.59,0,0,1-2.44,2.32,45.31,45.31,0,0,1-7.91-.11,2.51,2.51,0,0,1-1.91-2.17,51.21,51.21,0,0,1,0-7.74,2.59,2.59,0,0,1,2.43-2.31,54.32,54.32,0,0,1,7.55,0,2.59,2.59,0,0,1,2.31,2.45A54.12,54.12,0,0,1,42.05,119.39Zm-6.13-7.77a3.93,3.93,0,1,0,3.93,3.93A3.93,3.93,0,0,0,35.92,111.62Zm0,6.47a2.55,2.55,0,1,1,2.57-2.52A2.55,2.55,0,0,1,35.89,118.09Zm5-6.62a.93.93,0,1,1-.92-.93A.93.93,0,0,1,40.93,111.47Z"/><circle class="cls-17" cx="156.16" cy="185.12" r="12.21" transform="matrix(0.23, -0.97, 0.97, 0.23, -59.89, 294.57)"/><path class="cls-13" d="M148.44,192.88l.25-.93c.25-.94.52-1.88.76-2.82a.7.7,0,0,0,0-.45,7.76,7.76,0,1,1,8.19,4,7.85,7.85,0,0,1-4.84-.7.8.8,0,0,0-.48-.06C150.23,192.41,148.86,192.8,148.44,192.88Zm1.81-1.79c.77-.2,1.49-.37,2.19-.57a.62.62,0,0,1,.53.07,6.35,6.35,0,0,0,4.3.81,6.48,6.48,0,1,0-6.68-3.27,1.35,1.35,0,0,1,.14,1.23C150.54,189.91,150.42,190.48,150.25,191.09Z"/><path class="cls-13" d="M158.27,188.72c-1.52-.06-3.93-1.25-5.58-4.12a2.34,2.34,0,0,1,.36-3,1.06,1.06,0,0,1,1-.14c.09,0,.18.14.22.23.22.5.43,1,.63,1.52.1.27-.09.52-.48,1a.33.33,0,0,0,0,.44,5.27,5.27,0,0,0,2.69,2.32.34.34,0,0,0,.41-.11c.62-.76.68-1,1-.83,1.57.75,1.69.78,1.7,1A1.72,1.72,0,0,1,158.27,188.72Z"/><circle class="cls-18" cx="75.33" cy="185.12" r="12.21" transform="translate(-122.15 215.9) rotate(-76.72)"/><path class="cls-19" d="M75.41,177.48a4,4,0,0,1,4,4.05V184a1.44,1.44,0,0,0,.38,0,1,1,0,0,0,.49-.11,1.49,1.49,0,0,1,.62-.2.66.66,0,0,1,.48.22c.34.35,0,.68-.57.9s-1.31.4-1.32,1.07a4.37,4.37,0,0,0,1.75,2.46,2.73,2.73,0,0,0,1.69.7h.12c.06,0,.09,0,.1,0s.13.66-.84.91-1.18.08-1.38.59-.12.73-.37.73-.9-.14-1.55-.14a1.92,1.92,0,0,0-.77.12c-.6.26-1.55,1.41-3,1.48s-2.36-1.22-3-1.48a1.92,1.92,0,0,0-.77-.12c-.65,0-1.38.14-1.55.14s-.17-.22-.37-.73-.4-.34-1.37-.59-.88-.78-.85-.91,0,0,.1,0h.13a2.73,2.73,0,0,0,1.68-.7,4.37,4.37,0,0,0,1.75-2.46c0-.67-.81-.87-1.32-1.07s-.91-.55-.57-.9a.66.66,0,0,1,.48-.22,1.45,1.45,0,0,1,.62.2,1,1,0,0,0,.49.11,1.44,1.44,0,0,0,.38,0v-2.43a4,4,0,0,1,4-4.05h.16m0-.59h-.16a4.64,4.64,0,0,0-4.64,4.64v1.85h0a1.9,1.9,0,0,0-.89-.27,1.26,1.26,0,0,0-.9.4.94.94,0,0,0-.28.87c.08.41.44.74,1.06,1l.2.08c.28.11.67.25.74.41a3.94,3.94,0,0,1-1.51,2,2.14,2.14,0,0,1-1.33.59h-.13a.65.65,0,0,0-.67.48c-.14.59.11,1.32,1.27,1.62.31.08.56.12.74.15l.22,0v0a1.77,1.77,0,0,1,.11.36.84.84,0,0,0,.81.75l.41,0a9.13,9.13,0,0,1,1.14-.1,1.6,1.6,0,0,1,.53.06,4.16,4.16,0,0,1,.53.36,4.66,4.66,0,0,0,2.64,1.17h.06A4.66,4.66,0,0,0,78,192.18a4.16,4.16,0,0,1,.53-.36,1.6,1.6,0,0,1,.53-.06,9.13,9.13,0,0,1,1.14.1l.41,0a.84.84,0,0,0,.81-.75,1.77,1.77,0,0,1,.11-.36l0,0a1.09,1.09,0,0,1,.22,0c.17,0,.42-.07.73-.15,1.16-.3,1.41-1,1.27-1.62a.65.65,0,0,0-.67-.48H83a2.1,2.1,0,0,1-1.33-.59,3.83,3.83,0,0,1-1.51-2c.06-.16.45-.3.73-.41l.2-.08c.62-.24,1-.57,1.06-1a.92.92,0,0,0-.28-.87,1.25,1.25,0,0,0-.9-.4,1.93,1.93,0,0,0-.89.27h0v-1.85a4.64,4.64,0,0,0-4.64-4.64Z"/><path class="cls-16" d="M75.33,192.77c1.41-.07,2.36-1.22,3-1.48a6.29,6.29,0,0,1,2.32,0c.25,0,.17-.22.37-.73s.4-.34,1.38-.59.87-.78.84-.91a3,3,0,0,1-1.91-.73,4.37,4.37,0,0,1-1.75-2.46c0-.67.81-.87,1.32-1.07s.91-.55.57-.9-.68-.23-1.1,0a1.23,1.23,0,0,1-.87.06v-2.43a4,4,0,0,0-4-4.05h-.16a4,4,0,0,0-4,4.05V184a1.23,1.23,0,0,1-.87-.06c-.42-.21-.76-.32-1.1,0s0,.68.57.9,1.31.4,1.32,1.07a4.37,4.37,0,0,1-1.75,2.46,3,3,0,0,1-1.91.73c0,.13-.13.66.85.91s1.18.08,1.37.59.12.73.37.73a6.29,6.29,0,0,1,2.32,0C73,191.55,73.92,192.7,75.33,192.77Z"/><circle class="cls-20" cx="194.03" cy="113.59" r="12.21" transform="translate(38.9 276.34) rotate(-76.72)"/><path class="cls-13" d="M188.34,118.32a1.66,1.66,0,0,1-1.1-1.07c-.47-1.31-.62-6.79.3-7.87a1.78,1.78,0,0,1,1.2-.63c2.47-.27,10.11-.23,11,.08a1.77,1.77,0,0,1,1.08,1c.52,1.36.54,6.29-.07,7.59a1.71,1.71,0,0,1-.78.79C199.05,118.73,189.56,118.72,188.34,118.32Zm3.93-2.57,4.45-2.3-4.45-2.33Z"/></g></g></g></svg>