<svg xmlns="http://www.w3.org/2000/svg" viewBox="0 0 122.72 24.03"><defs><style>.cls-1{fill:#2ab14b;}.cls-2{fill:#fff;}</style></defs><g id="Layer_2" data-name="Layer 2"><g id="Layer_1-2" data-name="Layer 1"><rect class="cls-1" width="122.72" height="24.03" rx="4.98"/><path class="cls-2" d="M18.21,8.3a4.09,4.09,0,0,0-1.07-.65,3,3,0,0,0-1-.2,1.69,1.69,0,0,0-1,.3,1,1,0,0,0-.4.78.79.79,0,0,0,.2.55,1.78,1.78,0,0,0,.53.37,4.12,4.12,0,0,0,.73.28l.81.25a5.06,5.06,0,0,1,2.34,1.42A3.5,3.5,0,0,1,20,13.73a4.66,4.66,0,0,1-.32,1.75,3.77,3.77,0,0,1-.95,1.34,4.52,4.52,0,0,1-1.54.87,6.49,6.49,0,0,1-2.05.31,7.62,7.62,0,0,1-4.42-1.42L12.14,14a5.68,5.68,0,0,0,1.45,1,3.52,3.52,0,0,0,1.42.32,1.66,1.66,0,0,0,1.19-.37,1.11,1.11,0,0,0,.39-.83,1.07,1.07,0,0,0-.1-.49,1.19,1.19,0,0,0-.33-.39,3.11,3.11,0,0,0-.61-.32c-.25-.1-.55-.21-.91-.33s-.84-.28-1.24-.44a4.09,4.09,0,0,1-1.09-.65,2.89,2.89,0,0,1-.76-1,3.44,3.44,0,0,1-.29-1.54,4.58,4.58,0,0,1,.3-1.69,3.91,3.91,0,0,1,.87-1.3A3.86,3.86,0,0,1,13.8,5a5.17,5.17,0,0,1,1.81-.3A8.06,8.06,0,0,1,17.56,5a8.48,8.48,0,0,1,2,.76Z"/><path class="cls-2" d="M24.81,21.91h-3V9.1h3v1a3.18,3.18,0,0,1,2.63-1.22,4.1,4.1,0,0,1,1.71.36,4.32,4.32,0,0,1,1.37,1,4.51,4.51,0,0,1,.91,1.45,4.83,4.83,0,0,1,.33,1.79,4.7,4.7,0,0,1-1.23,3.2,4.16,4.16,0,0,1-3.06,1.31,3.53,3.53,0,0,1-2.66-1.1Zm3.8-8.51a1.94,1.94,0,0,0-.15-.76,1.88,1.88,0,0,0-.4-.63,2.1,2.1,0,0,0-.63-.42,1.83,1.83,0,0,0-.77-.16,1.86,1.86,0,0,0-.75.15,1.75,1.75,0,0,0-.61.42,2.12,2.12,0,0,0-.42.62,2,2,0,0,0-.16.76,1.87,1.87,0,0,0,.57,1.36,2.16,2.16,0,0,0,.62.41,1.82,1.82,0,0,0,.76.16A1.91,1.91,0,0,0,28,14.75a2.42,2.42,0,0,0,.42-.62A1.84,1.84,0,0,0,28.61,13.4Z"/><path class="cls-2" d="M33.27,5.81a1.58,1.58,0,0,1,.14-.65,1.87,1.87,0,0,1,.36-.55,2,2,0,0,1,.54-.36A1.66,1.66,0,0,1,35,4.11a1.59,1.59,0,0,1,.66.14,1.69,1.69,0,0,1,.91.91,1.72,1.72,0,0,1,0,1.31,1.69,1.69,0,0,1-1.57,1,1.65,1.65,0,0,1-.66-.13A1.79,1.79,0,0,1,33.77,7a1.7,1.7,0,0,1-.36-.54A1.59,1.59,0,0,1,33.27,5.81ZM36.49,9.1v8.55h-3V9.1Z"/><path class="cls-2" d="M38.56,9.1h3v1.08a3.3,3.3,0,0,1,1.25-1,4,4,0,0,1,1.49-.26,3.78,3.78,0,0,1,1.54.29,3.08,3.08,0,0,1,1.09.83,2.43,2.43,0,0,1,.5,1,4.93,4.93,0,0,1,.13,1.21v5.44h-3V13.33a4.21,4.21,0,0,0-.1-1,1.31,1.31,0,0,0-.32-.62,1.07,1.07,0,0,0-.45-.28,1.6,1.6,0,0,0-.53-.09,1.51,1.51,0,0,0-1.18.46,1.92,1.92,0,0,0-.41,1.31v4.57h-3Z"/><path class="cls-2" d="M58.66,11.61v6h-3v-6h-1V9.1h1V6.53h3V9.1h1.71v2.51Z"/><path class="cls-2" d="M61.32,13.3a4.1,4.1,0,0,1,.39-1.78,4.27,4.27,0,0,1,1.06-1.43,5,5,0,0,1,1.63-1,6.26,6.26,0,0,1,4.1,0,5.26,5.26,0,0,1,1.63,1,4.41,4.41,0,0,1,1.08,1.45,4.51,4.51,0,0,1,.38,1.86,4.31,4.31,0,0,1-1.47,3.31,4.79,4.79,0,0,1-1.64.94,6.33,6.33,0,0,1-2.07.33,6.06,6.06,0,0,1-2-.33,4.7,4.7,0,0,1-1.61-.95,4.3,4.3,0,0,1-1-1.47A4.59,4.59,0,0,1,61.32,13.3Zm3.19,0a2,2,0,0,0,.15.79,2.31,2.31,0,0,0,.42.63,1.92,1.92,0,0,0,.62.41,2,2,0,0,0,1.51,0,1.92,1.92,0,0,0,.62-.41,2.31,2.31,0,0,0,.42-.63,2,2,0,0,0,.16-.77,2,2,0,0,0-.16-.76,2.31,2.31,0,0,0-.42-.63,2,2,0,0,0-1.37-.56,1.94,1.94,0,0,0-.76.15,1.92,1.92,0,0,0-.62.41,2.42,2.42,0,0,0-.42.62A1.86,1.86,0,0,0,64.51,13.33Z"/><path class="cls-2" d="M81.37,5.08l2.17,8.12L86.2,5.08h2.6l2.67,8.12,2.17-8.12h3.41L93.3,17.65H90L87.5,10.36,85,17.65H81.7L78,5.08Z"/><path class="cls-2" d="M98.17,5.81a1.75,1.75,0,0,1,.13-.65,1.9,1.9,0,0,1,.37-.55,2,2,0,0,1,.54-.36,1.63,1.63,0,0,1,1.32,0,1.69,1.69,0,0,1,.91.91,1.72,1.72,0,0,1,0,1.31,1.78,1.78,0,0,1-.91.91,1.74,1.74,0,0,1-1.32,0A1.79,1.79,0,0,1,98.67,7a1.73,1.73,0,0,1-.37-.54A1.76,1.76,0,0,1,98.17,5.81Zm3.22,3.29v8.55h-3V9.1Z"/><path class="cls-2" d="M103.45,9.1h3v1.08a3.3,3.3,0,0,1,1.25-1,4,4,0,0,1,1.48-.26,3.83,3.83,0,0,1,1.55.29,3.17,3.17,0,0,1,1.09.83,2.43,2.43,0,0,1,.5,1,4.93,4.93,0,0,1,.13,1.21v5.44h-3V13.33a4.85,4.85,0,0,0-.09-1,1.31,1.31,0,0,0-.32-.62,1.21,1.21,0,0,0-.45-.28,1.61,1.61,0,0,0-.54-.09,1.5,1.5,0,0,0-1.17.46,1.92,1.92,0,0,0-.41,1.31v4.57h-3Z"/></g></g></svg>