<svg xmlns="http://www.w3.org/2000/svg" viewBox="0 0 243.42 95.37"><defs><style>.cls-1{fill:#2ab14b;}</style></defs><g id="Layer_2" data-name="Layer 2"><g id="Layer_1-2" data-name="Layer 1"><path class="cls-1" d="M11.69,6.13A3.92,3.92,0,0,0,8.55,4.58,3.83,3.83,0,0,0,5.82,5.69,3.82,3.82,0,0,0,5,6.92a3.86,3.86,0,0,0-.29,1.53A3.93,3.93,0,0,0,5,10a3.73,3.73,0,0,0,.8,1.24A3.92,3.92,0,0,0,7,12.06a3.71,3.71,0,0,0,1.49.3,4.23,4.23,0,0,0,3.16-1.5V15.2l-.37.13a11.85,11.85,0,0,1-1.57.44,8,8,0,0,1-1.44.14,7.33,7.33,0,0,1-5.15-2.1,7.71,7.71,0,0,1-1.64-2.38,7.22,7.22,0,0,1-.61-3,7.28,7.28,0,0,1,.6-3,7.36,7.36,0,0,1,4-3.87A7.35,7.35,0,0,1,8.33,1,7.58,7.58,0,0,1,10,1.21a9.37,9.37,0,0,1,1.71.55Z"/><path class="cls-1" d="M13.32,10.64a4.59,4.59,0,0,1,.43-2A4.73,4.73,0,0,1,14.94,7,5.83,5.83,0,0,1,16.77,6a6.59,6.59,0,0,1,2.31-.39A6.83,6.83,0,0,1,21.37,6,5.73,5.73,0,0,1,23.2,7a4.73,4.73,0,0,1,1.2,1.63,4.9,4.9,0,0,1,.43,2.08,4.73,4.73,0,0,1-.44,2.08,4.86,4.86,0,0,1-1.2,1.63,5.38,5.38,0,0,1-1.84,1.06,7.07,7.07,0,0,1-2.33.37,6.73,6.73,0,0,1-2.28-.37,5.22,5.22,0,0,1-1.8-1.07,4.78,4.78,0,0,1-1.19-1.65A5.15,5.15,0,0,1,13.32,10.64Zm3.57,0a2.14,2.14,0,0,0,.18.89,2.24,2.24,0,0,0,.46.7,2.1,2.1,0,0,0,.7.47,2.19,2.19,0,0,0,.85.17,2.26,2.26,0,0,0,.85-.17,2.17,2.17,0,0,0,.69-.47,2.46,2.46,0,0,0,.47-.7,2.29,2.29,0,0,0,.17-.87,2.22,2.22,0,0,0-.17-.85,2.46,2.46,0,0,0-.47-.7,2.34,2.34,0,0,0-.69-.47,2.25,2.25,0,0,0-.85-.16,2.18,2.18,0,0,0-.85.16,2.27,2.27,0,0,0-.7.47,2.31,2.31,0,0,0-.46.69A2,2,0,0,0,16.89,10.67Z"/><path class="cls-1" d="M26.78,5.93h3.38V7.14A3.69,3.69,0,0,1,31.56,6a4.49,4.49,0,0,1,1.67-.29A4.14,4.14,0,0,1,35,6.05,3.46,3.46,0,0,1,36.18,7a2.77,2.77,0,0,1,.56,1.09,5.6,5.6,0,0,1,.15,1.36v6.1H33.51V10.67a5.14,5.14,0,0,0-.11-1.15,1.42,1.42,0,0,0-.36-.7,1.27,1.27,0,0,0-.5-.31,1.72,1.72,0,0,0-.6-.1,1.64,1.64,0,0,0-1.32.52,2.1,2.1,0,0,0-.46,1.46v5.13H26.78Z"/><path class="cls-1" d="M49.92,5.93v8.93a10.28,10.28,0,0,1-.09,1.44,7.14,7.14,0,0,1-.26,1.12,3.49,3.49,0,0,1-.71,1.15,4.43,4.43,0,0,1-1.15.93,5.62,5.62,0,0,1-1.52.61,7.19,7.19,0,0,1-1.84.23,7.08,7.08,0,0,1-2.06-.28,5.6,5.6,0,0,1-1.63-.78,4.37,4.37,0,0,1-1.15-1.16,3.81,3.81,0,0,1-.6-1.44h3.81a1.53,1.53,0,0,0,1.61.95A2.16,2.16,0,0,0,46,17a2.31,2.31,0,0,0,.57-1.66v-.92a5.86,5.86,0,0,1-.72.59,4,4,0,0,1-.7.38,3.81,3.81,0,0,1-.75.22,5.71,5.71,0,0,1-.86.06,5,5,0,0,1-1.89-.35,4.62,4.62,0,0,1-1.49-1,4.54,4.54,0,0,1-1-1.53,5.4,5.4,0,0,1-.34-2,5.53,5.53,0,0,1,.37-2,5.4,5.4,0,0,1,1-1.64,4.53,4.53,0,0,1,1.53-1.1,4.62,4.62,0,0,1,1.94-.41,3.73,3.73,0,0,1,2.86,1.28v-1Zm-7.59,4.74a2.21,2.21,0,0,0,.17.87,2.15,2.15,0,0,0,1.15,1.17,2.29,2.29,0,0,0,.87.17,2.22,2.22,0,0,0,.85-.17,2,2,0,0,0,.69-.47,2.33,2.33,0,0,0,.47-.7,2.12,2.12,0,0,0,0-1.71,2.38,2.38,0,0,0-.48-.69,2.27,2.27,0,0,0-.7-.47,2.19,2.19,0,0,0-.83-.16,2,2,0,0,0-.84.17,2.41,2.41,0,0,0-.69.47,2.2,2.2,0,0,0-.48.68A2,2,0,0,0,42.33,10.67Z"/><path class="cls-1" d="M52.56,5.93h3.38V7.5a3.73,3.73,0,0,1,1.33-1.32,3.5,3.5,0,0,1,1.83-.46h.29a1.65,1.65,0,0,1,.36,0V9a3.26,3.26,0,0,0-1.46-.33,2.16,2.16,0,0,0-1.76.7,3.1,3.1,0,0,0-.59,2v4.12H52.56Z"/><path class="cls-1" d="M68.78,5.93h3.4v9.59h-3.4V14.45a3.55,3.55,0,0,1-2.93,1.37,4.72,4.72,0,0,1-1.93-.39,4.55,4.55,0,0,1-1.53-1.07,4.89,4.89,0,0,1-1-1.63,5.61,5.61,0,0,1-.36-2,5.35,5.35,0,0,1,.35-1.95,5.11,5.11,0,0,1,1-1.62A4.65,4.65,0,0,1,63.87,6a4.55,4.55,0,0,1,1.94-.4,3.87,3.87,0,0,1,3,1.25Zm-4.26,4.76a2.29,2.29,0,0,0,.17.87,2.08,2.08,0,0,0,.46.7,2,2,0,0,0,.69.47,2.29,2.29,0,0,0,.87.17,2.22,2.22,0,0,0,.85-.17,2,2,0,0,0,.69-.47,2.55,2.55,0,0,0,.47-.69,2.14,2.14,0,0,0,.17-.84,2.22,2.22,0,0,0-.17-.85,2.46,2.46,0,0,0-.47-.7,2,2,0,0,0-.69-.47,2.22,2.22,0,0,0-.85-.17,2.29,2.29,0,0,0-.87.17,2,2,0,0,0-.69.47,2.21,2.21,0,0,0-.46.68A2.09,2.09,0,0,0,64.52,10.69Z"/><path class="cls-1" d="M78.26,8.75v6.77H74.88V8.75H73.75V5.93h1.13V3.05h3.38V5.93h1.93V8.75Z"/><path class="cls-1" d="M84.84,5.93v5.4a1.72,1.72,0,1,0,3.44,0V5.93h3.38V12a3.42,3.42,0,0,1-1.28,2.92,6.25,6.25,0,0,1-3.82,1,6.23,6.23,0,0,1-3.82-1A3.42,3.42,0,0,1,81.46,12V5.93Z"/><path class="cls-1" d="M97.35,0V15.52H94V0Z"/><path class="cls-1" d="M107.07,5.93h3.4v9.59h-3.4V14.45a3.57,3.57,0,0,1-2.94,1.37,4.64,4.64,0,0,1-1.92-.39,4.59,4.59,0,0,1-1.54-1.07,5.23,5.23,0,0,1-1-1.63,5.61,5.61,0,0,1-.36-2,5.35,5.35,0,0,1,.36-1.95,4.78,4.78,0,0,1,1-1.62,4.59,4.59,0,0,1,3.45-1.49,3.9,3.9,0,0,1,3,1.25Zm-4.27,4.76a2.29,2.29,0,0,0,.17.87,2.24,2.24,0,0,0,.46.7,2,2,0,0,0,.69.47,2.29,2.29,0,0,0,.87.17,2.22,2.22,0,0,0,.85-.17,2,2,0,0,0,.69-.47,2.34,2.34,0,0,0,.47-.69,2,2,0,0,0,.18-.84,2.06,2.06,0,0,0-.18-.85,2.27,2.27,0,0,0-.47-.7,2,2,0,0,0-.69-.47,2.22,2.22,0,0,0-.85-.17,2.29,2.29,0,0,0-.87.17,2,2,0,0,0-.69.47,2.4,2.4,0,0,0-.46.68A2.09,2.09,0,0,0,102.8,10.69Z"/><path class="cls-1" d="M116.54,8.75v6.77h-3.38V8.75H112V5.93h1.12V3.05h3.38V5.93h1.93V8.75Z"/><path class="cls-1" d="M119.78,2.24a1.88,1.88,0,0,1,.15-.74,1.78,1.78,0,0,1,.41-.6A1.82,1.82,0,0,1,121,.49a1.88,1.88,0,0,1,1.47,0A1.82,1.82,0,0,1,123,.9a1.78,1.78,0,0,1,.41.6,1.88,1.88,0,0,1,.15.74,1.85,1.85,0,0,1-.15.74,1.82,1.82,0,0,1-.41.61,2,2,0,0,1-.61.41A1.88,1.88,0,0,1,121,4a2,2,0,0,1-.61-.41,1.82,1.82,0,0,1-.41-.61A1.85,1.85,0,0,1,119.78,2.24Zm3.61,3.69v9.59H120V5.93Z"/><path class="cls-1" d="M125.33,10.64a4.59,4.59,0,0,1,.43-2A4.89,4.89,0,0,1,127,7,5.78,5.78,0,0,1,128.78,6a6.59,6.59,0,0,1,2.31-.39,6.83,6.83,0,0,1,2.29.38A5.73,5.73,0,0,1,135.21,7a4.76,4.76,0,0,1,1.21,1.63,5.06,5.06,0,0,1,.43,2.08,4.87,4.87,0,0,1-.44,2.08,5,5,0,0,1-1.21,1.63,5.29,5.29,0,0,1-1.84,1.06,7,7,0,0,1-2.33.37,6.73,6.73,0,0,1-2.28-.37,5.22,5.22,0,0,1-1.8-1.07,4.92,4.92,0,0,1-1.19-1.65A5.15,5.15,0,0,1,125.33,10.64Zm3.57,0a2.14,2.14,0,0,0,.18.89,2.27,2.27,0,0,0,.47.7,2,2,0,0,0,.69.47,2.21,2.21,0,0,0,1.7,0,2,2,0,0,0,.69-.47,2.46,2.46,0,0,0,.47-.7,2.12,2.12,0,0,0,.18-.87,2.06,2.06,0,0,0-.18-.85,2.46,2.46,0,0,0-.47-.7,2.11,2.11,0,0,0-.69-.47,2.34,2.34,0,0,0-1.7,0,2.11,2.11,0,0,0-.69.47,2.34,2.34,0,0,0-.47.69A2,2,0,0,0,128.9,10.67Z"/><path class="cls-1" d="M138.79,5.93h3.38V7.14A3.64,3.64,0,0,1,143.58,6a4.4,4.4,0,0,1,1.66-.29,4.14,4.14,0,0,1,1.73.33,3.37,3.37,0,0,1,1.22.92,2.64,2.64,0,0,1,.56,1.09,5.6,5.6,0,0,1,.15,1.36v6.1h-3.38V10.67a5.22,5.22,0,0,0-.1-1.15,1.43,1.43,0,0,0-.37-.7,1.27,1.27,0,0,0-.5-.31,1.72,1.72,0,0,0-.6-.1,1.67,1.67,0,0,0-1.32.52,2.15,2.15,0,0,0-.46,1.46v5.13h-3.38Z"/><path class="cls-1" d="M157.56,8.39a4,4,0,0,0-1.83-.48,1.43,1.43,0,0,0-.76.18.6.6,0,0,0-.29.51.68.68,0,0,0,0,.27.54.54,0,0,0,.2.2,1.59,1.59,0,0,0,.47.16l.81.19a3.9,3.9,0,0,1,2.1,1,2.56,2.56,0,0,1,.69,1.84,3.3,3.3,0,0,1-.34,1.52,3.17,3.17,0,0,1-.93,1.13,4.61,4.61,0,0,1-1.44.71,6.37,6.37,0,0,1-1.85.25,7.59,7.59,0,0,1-3.84-1.1l1.24-2.39a4.87,4.87,0,0,0,2.69,1,1.32,1.32,0,0,0,.77-.21.61.61,0,0,0,.3-.52.87.87,0,0,0,0-.31.46.46,0,0,0-.2-.22,1.55,1.55,0,0,0-.44-.19,7,7,0,0,0-.75-.18,4.4,4.4,0,0,1-2.2-.94,2.34,2.34,0,0,1-.63-1.73,3.39,3.39,0,0,1,.3-1.45,3,3,0,0,1,.86-1.09,4.26,4.26,0,0,1,1.36-.7,6.09,6.09,0,0,1,1.76-.24,8.08,8.08,0,0,1,3.09.62Z"/><path class="cls-1" d="M161,13.72a2.22,2.22,0,0,1,.17-.85,2.19,2.19,0,0,1,1.17-1.17,2.19,2.19,0,0,1,.85-.17,2.22,2.22,0,0,1,.85.17,2.1,2.1,0,0,1,.7.47,2.27,2.27,0,0,1,.47.7,2.34,2.34,0,0,1,0,1.7,2.27,2.27,0,0,1-.47.7,2.1,2.1,0,0,1-.7.47,2.22,2.22,0,0,1-.85.17,2.19,2.19,0,0,1-.85-.17,2.19,2.19,0,0,1-1.17-1.17A2.22,2.22,0,0,1,161,13.72Zm.43-3V1.42h3.52v9.31Z"/><path class="cls-1" d="M4.6,34.43l-4.6-8H2.45l3.22,5.63L8.9,26.42h2.45l-4.62,8v6.09H4.6Z"/><path class="cls-1" d="M10.89,36a4.41,4.41,0,0,1,1.38-3.28,4.63,4.63,0,0,1,3.36-1.35A4.62,4.62,0,0,1,19,32.74a4.77,4.77,0,0,1,0,6.69,4.74,4.74,0,0,1-3.41,1.34,4.49,4.49,0,0,1-3.35-1.37A4.6,4.6,0,0,1,10.89,36ZM13,36a3,3,0,0,0,.71,2.11,2.5,2.5,0,0,0,1.93.79,2.49,2.49,0,0,0,1.92-.78,3.34,3.34,0,0,0,0-4.14,2.47,2.47,0,0,0-1.92-.79,2.47,2.47,0,0,0-1.91.79A2.83,2.83,0,0,0,13,36Z"/><path class="cls-1" d="M24.6,31.63v5.1c0,1.47.58,2.21,1.74,2.21s1.75-.74,1.75-2.21v-5.1h2.05v5.14a5.94,5.94,0,0,1-.26,1.85A3.11,3.11,0,0,1,29,39.87a3.9,3.9,0,0,1-2.65.9,3.87,3.87,0,0,1-2.63-.9,3.17,3.17,0,0,1-.91-1.25,5.16,5.16,0,0,1-.25-1.85V31.63Z"/><path class="cls-1" d="M38.5,25.1h2.06v7.26a3.55,3.55,0,0,1,2.41-1,3.09,3.09,0,0,1,2.41,1,3.92,3.92,0,0,1,.77,2.71v5.45h-2V35.26a2.54,2.54,0,0,0-.38-1.55,1.46,1.46,0,0,0-1.22-.48A1.68,1.68,0,0,0,41,33.9a4.65,4.65,0,0,0-.42,2.32v4.3H38.5Z"/><path class="cls-1" d="M55.31,31.63h2.06v8.89H55.31v-.94a3.95,3.95,0,0,1-5.78-.14,5,5,0,0,1-1.2-3.4,4.8,4.8,0,0,1,1.2-3.33,3.85,3.85,0,0,1,5.78-.05ZM50.43,36a3.05,3.05,0,0,0,.69,2.08,2.23,2.23,0,0,0,1.77.82,2.33,2.33,0,0,0,1.84-.79,3.38,3.38,0,0,0,0-4.12,2.33,2.33,0,0,0-1.82-.8,2.25,2.25,0,0,0-1.77.81A3,3,0,0,0,50.43,36Z"/><path class="cls-1" d="M61.23,31.63l2.3,5,2.29-5h2.31l-4.62,9.5-4.58-9.5Z"/><path class="cls-1" d="M77.3,36.55H70.92a2.75,2.75,0,0,0,.72,1.75,2.18,2.18,0,0,0,1.61.64,2.06,2.06,0,0,0,1.27-.37,5.06,5.06,0,0,0,1.12-1.35l1.74,1a6.55,6.55,0,0,1-.85,1.17,4.44,4.44,0,0,1-1,.8,4,4,0,0,1-1.1.47,5.86,5.86,0,0,1-1.29.14A4.17,4.17,0,0,1,70,39.49a4.78,4.78,0,0,1-1.2-3.41A4.9,4.9,0,0,1,70,32.67a4.44,4.44,0,0,1,6.22,0,4.89,4.89,0,0,1,1.13,3.44Zm-2.11-1.67a2,2,0,0,0-2.08-1.65,2.06,2.06,0,0,0-.7.12,1.93,1.93,0,0,0-.6.32,2.29,2.29,0,0,0-.46.52,2.7,2.7,0,0,0-.29.69Z"/><path class="cls-1" d="M85.31,31.63h2v.79a3.77,3.77,0,0,1,1-.81,2.33,2.33,0,0,1,1.06-.23,3.32,3.32,0,0,1,1.69.53l-.94,1.88A2,2,0,0,0,89,33.37c-1.12,0-1.68.84-1.68,2.54v4.61h-2Z"/><path class="cls-1" d="M100.27,36.55H93.9a2.69,2.69,0,0,0,.71,1.75,2.2,2.2,0,0,0,1.62.64,2.08,2.08,0,0,0,1.27-.37,5.25,5.25,0,0,0,1.12-1.35l1.73,1a6.55,6.55,0,0,1-.85,1.17,4.17,4.17,0,0,1-1,.8,4,4,0,0,1-1.11.47,5.73,5.73,0,0,1-1.29.14A4.15,4.15,0,0,1,93,39.49a4.78,4.78,0,0,1-1.21-3.41,4.9,4.9,0,0,1,1.17-3.41,4.46,4.46,0,0,1,6.23,0,4.93,4.93,0,0,1,1.13,3.44Zm-2.11-1.67a2,2,0,0,0-2.07-1.65,2,2,0,0,0-.7.12,1.93,1.93,0,0,0-.6.32,2.29,2.29,0,0,0-.46.52,2.14,2.14,0,0,0-.29.69Z"/><path class="cls-1" d="M109.44,32v2.73a5,5,0,0,0-1.26-1.18,2.48,2.48,0,0,0-1.29-.33A2.55,2.55,0,0,0,105,34a3.16,3.16,0,0,0,0,4.09,2.46,2.46,0,0,0,1.9.81,2.65,2.65,0,0,0,1.31-.32,5.43,5.43,0,0,0,1.29-1.21v2.71a5.34,5.34,0,0,1-2.51.65,4.79,4.79,0,0,1-3.45-1.33,4.72,4.72,0,0,1,0-6.69A4.78,4.78,0,0,1,107,31.38,5.17,5.17,0,0,1,109.44,32Z"/><path class="cls-1" d="M119.52,36.55h-6.37a2.74,2.74,0,0,0,.71,1.75,2.2,2.2,0,0,0,1.62.64,2.08,2.08,0,0,0,1.27-.37,5.06,5.06,0,0,0,1.12-1.35l1.73,1a6.09,6.09,0,0,1-.85,1.17,4.17,4.17,0,0,1-1,.8,3.91,3.91,0,0,1-1.11.47,5.73,5.73,0,0,1-1.29.14,4.15,4.15,0,0,1-3.19-1.28,4.78,4.78,0,0,1-1.2-3.41,4.9,4.9,0,0,1,1.16-3.41,4.46,4.46,0,0,1,6.23,0,4.93,4.93,0,0,1,1.13,3.44Zm-2.11-1.67a2,2,0,0,0-2.07-1.65,2,2,0,0,0-.7.12,1.93,1.93,0,0,0-.6.32,2.29,2.29,0,0,0-.46.52,2.14,2.14,0,0,0-.29.69Z"/><path class="cls-1" d="M121.46,27.93a1.27,1.27,0,0,1,.39-.93,1.29,1.29,0,0,1,.94-.4,1.31,1.31,0,0,1,.95.4,1.26,1.26,0,0,1,.39.94,1.3,1.3,0,0,1-.39.95,1.28,1.28,0,0,1-.94.39,1.33,1.33,0,0,1-1.34-1.35Zm2.36,3.7v8.89h-2V31.63Z"/><path class="cls-1" d="M127.53,31.63l2.3,5,2.29-5h2.31l-4.62,9.5-4.58-9.5Z"/><path class="cls-1" d="M143.59,36.55h-6.37a2.74,2.74,0,0,0,.71,1.75,2.2,2.2,0,0,0,1.62.64,2.08,2.08,0,0,0,1.27-.37,5.06,5.06,0,0,0,1.12-1.35l1.73,1a6.53,6.53,0,0,1-.84,1.17,4.44,4.44,0,0,1-1,.8,3.91,3.91,0,0,1-1.11.47,5.7,5.7,0,0,1-1.28.14,4.16,4.16,0,0,1-3.2-1.28,4.78,4.78,0,0,1-1.2-3.41,5,5,0,0,1,1.16-3.41,4.46,4.46,0,0,1,6.23,0,4.93,4.93,0,0,1,1.13,3.44Zm-2.11-1.67a2,2,0,0,0-2.07-1.65,2,2,0,0,0-.7.12,1.93,1.93,0,0,0-.6.32,2.29,2.29,0,0,0-.46.52,2.14,2.14,0,0,0-.29.69Z"/><path class="cls-1" d="M152.39,25.1h2.06V40.52h-2.06v-.94a3.79,3.79,0,0,1-2.75,1.19,3.92,3.92,0,0,1-3-1.33,5,5,0,0,1-1.19-3.4,4.83,4.83,0,0,1,1.19-3.32,3.84,3.84,0,0,1,3-1.34,3.79,3.79,0,0,1,2.79,1.28ZM147.52,36a3.1,3.1,0,0,0,.68,2.08,2.23,2.23,0,0,0,1.77.82,2.36,2.36,0,0,0,1.85-.79,3.38,3.38,0,0,0,0-4.12,2.34,2.34,0,0,0-1.83-.8,2.26,2.26,0,0,0-1.77.81A2.94,2.94,0,0,0,147.52,36Z"/><path class="cls-1" d="M172,29.52h-4.88l-.24,1.56.61-.07a5.49,5.49,0,0,1,.58,0,5.17,5.17,0,0,1,2,.38,4.56,4.56,0,0,1,2.6,2.59,5.28,5.28,0,0,1,.38,2A4.89,4.89,0,0,1,172.6,38a4.45,4.45,0,0,1-1.19,1.56,5.38,5.38,0,0,1-1.87,1,8.19,8.19,0,0,1-2.45.35,9.12,9.12,0,0,1-2.42-.31,8,8,0,0,1-2.16-.94l.54-3.44A7.76,7.76,0,0,0,165,37.44a4.66,4.66,0,0,0,1.85.42,2.5,2.5,0,0,0,1.78-.61,2,2,0,0,0,.65-1.5,2,2,0,0,0-.88-1.69,3.78,3.78,0,0,0-2.3-.65,6.72,6.72,0,0,0-1.31.14,6.6,6.6,0,0,0-1.32.44l1.17-7.57H172Z"/><path class="cls-1" d="M174.61,33.45a10.15,10.15,0,0,1,.43-3.06,7.25,7.25,0,0,1,1.24-2.34,5.62,5.62,0,0,1,1.89-1.51,5.77,5.77,0,0,1,4.83,0,5.62,5.62,0,0,1,1.89,1.51,7.21,7.21,0,0,1,1.22,2.34,10.86,10.86,0,0,1,0,6.12,7.27,7.27,0,0,1-1.22,2.35,5.5,5.5,0,0,1-8.61,0A7.3,7.3,0,0,1,175,36.51,10.15,10.15,0,0,1,174.61,33.45Zm3.62,0a8.09,8.09,0,0,0,.17,1.7,4.84,4.84,0,0,0,.48,1.33,2.55,2.55,0,0,0,.74.87,1.66,1.66,0,0,0,1.93,0,2.55,2.55,0,0,0,.74-.87,5.59,5.59,0,0,0,.47-1.33,9.06,9.06,0,0,0,0-3.39,5.29,5.29,0,0,0-.47-1.33,2.51,2.51,0,0,0-.74-.86,1.66,1.66,0,0,0-1.93,0,2.51,2.51,0,0,0-.74.86,4.61,4.61,0,0,0-.48,1.33A8.13,8.13,0,0,0,178.23,33.45Z"/><path class="cls-1" d="M187.32,33.45a9.84,9.84,0,0,1,.44-3.06A7,7,0,0,1,189,28.05a5.62,5.62,0,0,1,1.89-1.51,5.77,5.77,0,0,1,4.83,0,5.43,5.43,0,0,1,1.89,1.51,7.21,7.21,0,0,1,1.22,2.34,10.86,10.86,0,0,1,0,6.12,7.27,7.27,0,0,1-1.22,2.35,5.35,5.35,0,0,1-1.89,1.52A5.5,5.5,0,0,1,189,38.86a7.09,7.09,0,0,1-1.23-2.35A9.84,9.84,0,0,1,187.32,33.45Zm3.62,0a8.09,8.09,0,0,0,.17,1.7,4.84,4.84,0,0,0,.48,1.33,2.55,2.55,0,0,0,.74.87,1.66,1.66,0,0,0,1.93,0,2.55,2.55,0,0,0,.74-.87,5.19,5.19,0,0,0,.47-1.33,8.54,8.54,0,0,0,0-3.39,4.93,4.93,0,0,0-.47-1.33,2.51,2.51,0,0,0-.74-.86,1.66,1.66,0,0,0-1.93,0,2.51,2.51,0,0,0-.74.86,4.61,4.61,0,0,0-.48,1.33A8.13,8.13,0,0,0,190.94,33.45Z"/><path class="cls-1" d="M200.81,30.93h3.39V32.1a4.37,4.37,0,0,1,3.1-1.32,3.59,3.59,0,0,1,3.25,1.79,3.63,3.63,0,0,1,3.26-1.81,4.11,4.11,0,0,1,1.27.19,2.64,2.64,0,0,1,1,.62,3.12,3.12,0,0,1,.68,1.09,4.66,4.66,0,0,1,.25,1.63v6.23h-3.38V35.79a5.57,5.57,0,0,0-.11-1.2,1.69,1.69,0,0,0-.3-.73,1,1,0,0,0-.45-.35,1.5,1.5,0,0,0-.56-.1c-1.09,0-1.63.79-1.63,2.38v4.73h-3.38V35.79a6.6,6.6,0,0,0-.1-1.21,2.17,2.17,0,0,0-.27-.76.94.94,0,0,0-.46-.38,1.81,1.81,0,0,0-.65-.1,2,2,0,0,0-.6.09,1,1,0,0,0-.49.37,1.89,1.89,0,0,0-.34.74,5.33,5.33,0,0,0-.12,1.25v4.73h-3.39Z"/><path class="cls-1" d="M222.74,25v6.88a4,4,0,0,1,3-1.25,4.63,4.63,0,0,1,3.47,1.48,4.87,4.87,0,0,1,1,1.61,5.42,5.42,0,0,1,.36,2,5.31,5.31,0,0,1-.37,2,4.79,4.79,0,0,1-1,1.63,4.69,4.69,0,0,1-1.54,1.09,4.55,4.55,0,0,1-1.91.41,3.58,3.58,0,0,1-3-1.37v1.07h-3.38V25ZM227,35.75a2.22,2.22,0,0,0-.16-.85,2.27,2.27,0,0,0-.47-.7,2.38,2.38,0,0,0-.69-.48,2,2,0,0,0-.86-.18,2.14,2.14,0,0,0-.84.17,2.06,2.06,0,0,0-.69.47,2.24,2.24,0,0,0-.46.7,2.06,2.06,0,0,0-.18.85,2,2,0,0,0,.17.84,2,2,0,0,0,.46.68,2.39,2.39,0,0,0,.7.47,2.11,2.11,0,0,0,.86.18,2.17,2.17,0,0,0,.84-.17,2,2,0,0,0,.68-.47,2.55,2.55,0,0,0,.47-.69A2.08,2.08,0,0,0,227,35.75Z"/><path class="cls-1" d="M232.29,38.72a2.22,2.22,0,0,1,.17-.85,2.19,2.19,0,0,1,1.17-1.17,2.21,2.21,0,0,1,1.7,0,2.19,2.19,0,0,1,1.17,1.17,2.21,2.21,0,0,1,0,1.7,2.19,2.19,0,0,1-1.17,1.17,2.21,2.21,0,0,1-1.7,0,2.19,2.19,0,0,1-1.17-1.17A2.22,2.22,0,0,1,232.29,38.72Z"/><path class="cls-1" d="M5.64,53.42v12.1H3.51V53.42H.27v-2h8.6v2Z"/><path class="cls-1" d="M9.12,61a4.41,4.41,0,0,1,1.38-3.28,4.63,4.63,0,0,1,3.36-1.35,4.62,4.62,0,0,1,3.37,1.36,4.76,4.76,0,0,1,0,6.69,4.72,4.72,0,0,1-3.4,1.34,4.53,4.53,0,0,1-3.35-1.37A4.6,4.6,0,0,1,9.12,61Zm2.1,0a3,3,0,0,0,.71,2.11,2.5,2.5,0,0,0,1.93.79,2.49,2.49,0,0,0,1.92-.78,3.34,3.34,0,0,0,0-4.14,2.47,2.47,0,0,0-1.92-.79A2.47,2.47,0,0,0,12,59,2.83,2.83,0,0,0,11.22,61Z"/><path class="cls-1" d="M33.1,56.63h2.06v8.89H33.1v-.93a4,4,0,0,1-5.78-.15,5,5,0,0,1-1.2-3.4,4.8,4.8,0,0,1,1.2-3.33,3.86,3.86,0,0,1,3-1.33,3.79,3.79,0,0,1,2.79,1.28ZM28.22,61a3.05,3.05,0,0,0,.69,2.08,2.23,2.23,0,0,0,1.77.82,2.33,2.33,0,0,0,1.84-.79,3.34,3.34,0,0,0,0-4.12,2.32,2.32,0,0,0-1.82-.8,2.25,2.25,0,0,0-1.77.81A3,3,0,0,0,28.22,61Z"/><path class="cls-1" d="M44.67,57v2.73a5,5,0,0,0-1.26-1.18,2.41,2.41,0,0,0-1.28-.33A2.54,2.54,0,0,0,40.2,59a2.87,2.87,0,0,0-.77,2,2.91,2.91,0,0,0,.74,2.05,2.49,2.49,0,0,0,1.91.81,2.67,2.67,0,0,0,1.31-.32,5.24,5.24,0,0,0,1.28-1.21v2.71a5.3,5.3,0,0,1-2.5.65,4.79,4.79,0,0,1-3.45-1.33,4.7,4.7,0,0,1,0-6.69,4.78,4.78,0,0,1,3.45-1.37A5.14,5.14,0,0,1,44.67,57Z"/><path class="cls-1" d="M48.78,58.54v7H46.73v-7h-.88V56.63h.88V53.37h2.05v3.26h1.6v1.91Z"/><path class="cls-1" d="M51.46,52.93a1.24,1.24,0,0,1,.4-.93,1.29,1.29,0,0,1,.94-.4,1.32,1.32,0,0,1,1,.4,1.26,1.26,0,0,1,.39.94,1.3,1.3,0,0,1-.39,1,1.35,1.35,0,0,1-2.29-1Zm2.37,3.7v8.89H51.77V56.63Z"/><path class="cls-1" d="M57.53,56.63l2.3,5,2.29-5h2.31l-4.61,9.5-4.59-9.5Z"/><path class="cls-1" d="M72.06,56.63h2.06v8.89H72.06v-.93a4,4,0,0,1-5.78-.15,5,5,0,0,1-1.2-3.4,4.8,4.8,0,0,1,1.2-3.33,3.85,3.85,0,0,1,5.78-.05ZM67.18,61a3.05,3.05,0,0,0,.69,2.08,2.21,2.21,0,0,0,1.77.82,2.33,2.33,0,0,0,1.84-.79,3.38,3.38,0,0,0,0-4.12,2.33,2.33,0,0,0-1.82-.8,2.28,2.28,0,0,0-1.78.81A3,3,0,0,0,67.18,61Z"/><path class="cls-1" d="M78.83,58.54v7h-2v-7H75.9V56.63h.88V53.37h2v3.26h1.6v1.91Z"/><path class="cls-1" d="M90.08,61.55H83.71a2.74,2.74,0,0,0,.71,1.75,2.2,2.2,0,0,0,1.62.64,2.14,2.14,0,0,0,1.27-.37,5.06,5.06,0,0,0,1.12-1.35l1.74,1a6.55,6.55,0,0,1-.85,1.17,4.44,4.44,0,0,1-1,.8,3.91,3.91,0,0,1-1.11.47,5.7,5.7,0,0,1-1.28.14,4.17,4.17,0,0,1-3.2-1.28,4.78,4.78,0,0,1-1.2-3.41,4.9,4.9,0,0,1,1.17-3.41,4.44,4.44,0,0,1,6.22,0,4.89,4.89,0,0,1,1.13,3.44ZM88,59.88a2,2,0,0,0-2.08-1.65,2,2,0,0,0-.7.12,1.93,1.93,0,0,0-.6.32,2.29,2.29,0,0,0-.46.52,2.39,2.39,0,0,0-.29.69Z"/><path class="cls-1" d="M97.79,52.93a1.27,1.27,0,0,1,.39-.93,1.32,1.32,0,0,1,1.89,0,1.26,1.26,0,0,1,.39.94,1.3,1.3,0,0,1-.39,1,1.28,1.28,0,0,1-.94.39,1.33,1.33,0,0,1-1.34-1.35Zm2.36,3.7v8.89H98.1V56.63Z"/><path class="cls-1" d="M104.87,58.54v7h-2.05v-7h-.88V56.63h.88V53.37h2.05v3.26h1.6v1.91Z"/><path class="cls-1" d="M113.81,51.42h5.43a6.33,6.33,0,0,1,2.7.58,7.45,7.45,0,0,1,2.2,1.54,7.18,7.18,0,0,1,1.49,2.25,6.79,6.79,0,0,1,.54,2.68,6.94,6.94,0,0,1-.53,2.66,7.2,7.2,0,0,1-1.48,2.26,7.48,7.48,0,0,1-2.2,1.55,6.57,6.57,0,0,1-2.72.58h-5.43Zm3.67,11h.84a4.52,4.52,0,0,0,1.7-.3,3.57,3.57,0,0,0,1.26-.82,3.42,3.42,0,0,0,.79-1.24,4.48,4.48,0,0,0,.27-1.58,4.25,4.25,0,0,0-.28-1.57,3.44,3.44,0,0,0-.8-1.25,3.6,3.6,0,0,0-1.26-.83,4.49,4.49,0,0,0-1.68-.3h-.84Z"/><path class="cls-1" d="M128,52.24a1.8,1.8,0,0,1,.15-.73,1.73,1.73,0,0,1,.41-.61,1.78,1.78,0,0,1,.6-.41,1.9,1.9,0,0,1,1.48,0,1.93,1.93,0,0,1,.61.41,1.87,1.87,0,0,1,.41.61,1.88,1.88,0,0,1,0,1.47,1.91,1.91,0,0,1-1,1,1.9,1.9,0,0,1-1.48,0,1.94,1.94,0,0,1-1-1A1.81,1.81,0,0,1,128,52.24Zm3.6,3.69v9.59h-3.38V55.93Z"/><path class="cls-1" d="M141.29,55.93h3.41v9.59h-3.41V64.45a3.54,3.54,0,0,1-2.93,1.36,4.72,4.72,0,0,1-1.93-.38,4.65,4.65,0,0,1-1.53-1.07,5.06,5.06,0,0,1-1-1.63,5.78,5.78,0,0,1,0-4,5.11,5.11,0,0,1,1-1.62A4.76,4.76,0,0,1,136.38,56a4.55,4.55,0,0,1,1.94-.4,3.87,3.87,0,0,1,3,1.25ZM137,60.69a2.29,2.29,0,0,0,.17.87,2.24,2.24,0,0,0,.46.7,2,2,0,0,0,.69.47,2.29,2.29,0,0,0,.87.17,2.22,2.22,0,0,0,.85-.17,2,2,0,0,0,.69-.47,2.34,2.34,0,0,0,.47-.69,2,2,0,0,0,.18-.84,2.06,2.06,0,0,0-.18-.85,2.27,2.27,0,0,0-.47-.7,2,2,0,0,0-.69-.47,2.22,2.22,0,0,0-.85-.17,2.29,2.29,0,0,0-.87.17,2,2,0,0,0-.69.47,2.4,2.4,0,0,0-.46.68A2.09,2.09,0,0,0,137,60.69Z"/><path class="cls-1" d="M150.38,50V65.52H147V50Z"/><path class="cls-1" d="M163.41,50h1.68l-.33,2.56,2.33-1.08.53,1.57-2.55.48,1.78,1.87-1.37,1-1.23-2.26L163,56.39l-1.35-1,1.76-1.87-2.53-.48.51-1.57,2.32,1.1Z"/><path class="cls-1" d="M181.08,54.52H176.2L176,56.08l.62-.07a5.49,5.49,0,0,1,.58,0,5.17,5.17,0,0,1,2,.38,4.56,4.56,0,0,1,2.6,2.59,5.23,5.23,0,0,1,.37,2,4.86,4.86,0,0,1-.42,2.06,4.42,4.42,0,0,1-1.18,1.56,5.47,5.47,0,0,1-1.87,1,8.24,8.24,0,0,1-2.45.35,9.07,9.07,0,0,1-2.42-.31,7.7,7.7,0,0,1-2.16-.94l.54-3.44a7.58,7.58,0,0,0,1.91,1.22,4.62,4.62,0,0,0,1.85.42,2.47,2.47,0,0,0,1.77-.61,1.94,1.94,0,0,0,.66-1.5,2,2,0,0,0-.88-1.69,3.8,3.8,0,0,0-2.3-.65,6.39,6.39,0,0,0-2.64.58l1.18-7.57h7.39Z"/><path class="cls-1" d="M193.92,59.81h1.7v2.81h-1.7v2.9h-3.4v-2.9h-6.81V60.26l5.38-8.84h4.83Zm-3.4,0V54.26l-3.24,5.55Z"/><path class="cls-1" d="M207.1,59.81h1.7v2.81h-1.7v2.9h-3.41v-2.9h-6.8V60.26l5.38-8.84h4.83Zm-3.41,0V54.26l-3.23,5.55Z"/><path class="cls-1" d="M221.21,59.22v2.43H219l-.51,3.87h-2.78l.5-3.87h-1.81l-.51,3.87H211.1l.52-3.87h-1.94V59.22h2.24l.22-1.8h-1.9V55h2.22l.47-3.59h2.75L215.21,55H217l.49-3.59h2.77L219.81,55h1.91v2.41h-2.21l-.24,1.8Zm-4.49-1.8h-1.81l-.24,1.8h1.81Z"/><path class="cls-1" d="M231.23,58.54v7h-2v-7h-.88V56.63h.88V53.37h2v3.26h1.6v1.91Z"/><path class="cls-1" d="M233.94,61a4.44,4.44,0,0,1,1.37-3.28,4.87,4.87,0,0,1,6.74,0,4.76,4.76,0,0,1,0,6.69,4.72,4.72,0,0,1-3.4,1.34,4.52,4.52,0,0,1-3.35-1.37A4.6,4.6,0,0,1,233.94,61Zm2.1,0a3,3,0,0,0,.71,2.11,2.75,2.75,0,0,0,3.85,0,3.34,3.34,0,0,0,0-4.14,2.5,2.5,0,0,0-1.93-.79,2.45,2.45,0,0,0-1.9.79A2.83,2.83,0,0,0,236,61Z"/><path class="cls-1" d="M3.41,75.1v7.56a3.85,3.85,0,0,1,5.79.06A4.79,4.79,0,0,1,10.4,86a4.88,4.88,0,0,1-1.21,3.4,3.87,3.87,0,0,1-3,1.33,3.84,3.84,0,0,1-2.76-1.18v.93h-2V75.1Zm4.89,11a3,3,0,0,0-.7-2.08,2.24,2.24,0,0,0-1.76-.82A2.36,2.36,0,0,0,4,84a2.92,2.92,0,0,0-.7,2A3,3,0,0,0,4,88.14a2.3,2.3,0,0,0,1.82.8,2.28,2.28,0,0,0,1.78-.8A2.92,2.92,0,0,0,8.3,86.13Z"/><path class="cls-1" d="M14.62,81.63v5.1c0,1.47.58,2.21,1.75,2.21s1.74-.74,1.74-2.21v-5.1h2.05v5.14a5.66,5.66,0,0,1-.26,1.85A3.11,3.11,0,0,1,19,89.87a3.88,3.88,0,0,1-2.64.9,3.88,3.88,0,0,1-2.64-.9,3.17,3.17,0,0,1-.91-1.25,5.16,5.16,0,0,1-.25-1.85V81.63Z"/><path class="cls-1" d="M25.56,88.86l-4-7.23h2.38l2.72,5.11,2.54-5.11h2.32L24.44,95.35H22.09Z"/><path class="cls-1" d="M42.45,78.41H40l1.17-2h3.39v14.1H42.45Z"/><path class="cls-1" d="M58.82,90.31c0,.42,0,.79,0,1.11s-.07.6-.11.84A3.84,3.84,0,0,1,57.81,94a4.16,4.16,0,0,1-3.32,1.39,4.44,4.44,0,0,1-2.93-1,3.93,3.93,0,0,1-1.37-2.73h2.07a2.42,2.42,0,0,0,.39,1,2.22,2.22,0,0,0,1.86.83c1.51,0,2.26-.92,2.26-2.77V89.52A3.86,3.86,0,0,1,54,90.77a3.81,3.81,0,0,1-3-1.31,4.87,4.87,0,0,1-1.17-3.33,5.11,5.11,0,0,1,1.09-3.31A3.78,3.78,0,0,1,54,81.38a3.62,3.62,0,0,1,2.8,1.25v-1h2Zm-2-4.22A3,3,0,0,0,56.16,84a2.3,2.3,0,0,0-1.8-.8,2.22,2.22,0,0,0-1.85.87,3.21,3.21,0,0,0-.61,2,3.17,3.17,0,0,0,.61,2,2.24,2.24,0,0,0,1.85.85,2.27,2.27,0,0,0,1.86-.86A3.06,3.06,0,0,0,56.85,86.09Z"/><path class="cls-1" d="M63.47,75.1v7.56a3.79,3.79,0,0,1,2.79-1.28,3.84,3.84,0,0,1,3,1.34A4.79,4.79,0,0,1,70.45,86a4.88,4.88,0,0,1-1.21,3.4,3.95,3.95,0,0,1-5.77.15v.93H61.41V75.1Zm4.88,11a3.09,3.09,0,0,0-.69-2.08,2.26,2.26,0,0,0-1.77-.82,2.37,2.37,0,0,0-1.84.8,2.92,2.92,0,0,0-.7,2A3,3,0,0,0,64,88.14a2.31,2.31,0,0,0,1.83.8,2.27,2.27,0,0,0,1.77-.8A2.92,2.92,0,0,0,68.35,86.13Z"/><path class="cls-1" d="M84.94,75.1H87V90.52H84.94v-.93a3.8,3.8,0,0,1-2.74,1.18,3.89,3.89,0,0,1-3-1.33A5,5,0,0,1,78,86a4.79,4.79,0,0,1,1.2-3.32,3.83,3.83,0,0,1,5.77-.06ZM80.07,86a3.1,3.1,0,0,0,.68,2.08,2.23,2.23,0,0,0,1.78.82,2.33,2.33,0,0,0,1.84-.79,3.38,3.38,0,0,0,0-4.12,2.34,2.34,0,0,0-1.83-.8,2.28,2.28,0,0,0-1.77.81A2.94,2.94,0,0,0,80.07,86Z"/><path class="cls-1" d="M96.15,81.63h2.07v8.89H96.15v-.93a3.95,3.95,0,0,1-5.77-.15,5,5,0,0,1-1.2-3.4,4.8,4.8,0,0,1,1.2-3.33,3.83,3.83,0,0,1,3-1.33,3.79,3.79,0,0,1,2.78,1.28ZM91.28,86A3.1,3.1,0,0,0,92,88.12a2.23,2.23,0,0,0,1.78.82,2.33,2.33,0,0,0,1.84-.79,3.38,3.38,0,0,0,0-4.12,2.34,2.34,0,0,0-1.83-.8A2.28,2.28,0,0,0,92,84,2.94,2.94,0,0,0,91.28,86Z"/><path class="cls-1" d="M102.93,83.54v7h-2.06v-7H100V81.63h.87V78.37h2.06v3.26h1.59v1.91Z"/><path class="cls-1" d="M112.64,81.63h2.06v8.89h-2.06v-.93a4,4,0,0,1-5.78-.15,5,5,0,0,1-1.19-3.4,4.79,4.79,0,0,1,1.19-3.33,3.86,3.86,0,0,1,3-1.33,3.79,3.79,0,0,1,2.79,1.28ZM107.76,86a3.05,3.05,0,0,0,.69,2.08,2.23,2.23,0,0,0,1.77.82,2.32,2.32,0,0,0,1.84-.79,3.34,3.34,0,0,0,0-4.12,2.3,2.3,0,0,0-1.82-.8,2.25,2.25,0,0,0-1.77.81A3,3,0,0,0,107.76,86Z"/><path class="cls-1" d="M117.61,89.49a1.2,1.2,0,0,1,.38-.88,1.26,1.26,0,1,1,0,1.8A1.28,1.28,0,0,1,117.61,89.49Z"/></g></g></svg>